<svg width="16" height="17" viewBox="0 0 16 17" fill="none" xmlns="http://www.w3.org/2000/svg">
<path d="M9.76291 8.5L15.1379 3.1375C15.3733 2.90212 15.5055 2.58288 15.5055 2.25C15.5055 1.91713 15.3733 1.59788 15.1379 1.3625C14.9025 1.12712 14.5833 0.994888 14.2504 0.994888C13.9175 0.994888 13.5983 1.12712 13.3629 1.3625L8.00041 6.7375L2.63791 1.3625C2.40253 1.12712 2.08329 0.994888 1.75041 0.994888C1.41754 0.994888 1.09829 1.12712 0.862912 1.3625C0.627532 1.59788 0.495297 1.91713 0.495297 2.25C0.495297 2.58288 0.627532 2.90212 0.862912 3.1375L6.23791 8.5L0.862912 13.8625C0.745751 13.9787 0.652759 14.117 0.589298 14.2693C0.525837 14.4216 0.493164 14.585 0.493164 14.75C0.493164 14.915 0.525837 15.0784 0.589298 15.2307C0.652759 15.383 0.745751 15.5213 0.862912 15.6375C0.979116 15.7547 1.11737 15.8477 1.26969 15.9111C1.42202 15.9746 1.5854 16.0072 1.75041 16.0072C1.91543 16.0072 2.07881 15.9746 2.23113 15.9111C2.38346 15.8477 2.52171 15.7547 2.63791 15.6375L8.00041 10.2625L13.3629 15.6375C13.4791 15.7547 13.6174 15.8477 13.7697 15.9111C13.922 15.9746 14.0854 16.0072 14.2504 16.0072C14.4154 16.0072 14.5788 15.9746 14.7311 15.9111C14.8835 15.8477 15.0217 15.7547 15.1379 15.6375C15.2551 15.5213 15.3481 15.383 15.4115 15.2307C15.475 15.0784 15.5077 14.915 15.5077 14.75C15.5077 14.585 15.475 14.4216 15.4115 14.2693C15.3481 14.117 15.2551 13.9787 15.1379 13.8625L9.76291 8.5Z" />
</svg>
