<svg width="24" height="24" viewBox="0 0 24 24" fill="none" xmlns="http://www.w3.org/2000/svg">
<g clip-path="url(#clip0_699_1547)">
<path d="M15.5511 12.9961L13.541 15.0129C12.7259 15.8309 11.2917 15.8485 10.459 15.0129L8.44887 12.9961L1.22937 20.239C1.4981 20.3633 1.7944 20.4375 2.1094 20.4375H21.8907C22.2057 20.4375 22.5019 20.3634 22.7705 20.2391L15.5511 12.9961Z" fill="#C3018D"/>
<path d="M21.8906 3.5625H2.10937C1.79437 3.5625 1.49807 3.63666 1.22943 3.76092L8.94398 11.5011C8.94449 11.5016 8.9451 11.5017 8.94562 11.5022C8.94613 11.5027 8.94623 11.5034 8.94623 11.5034L11.4546 14.0201C11.7211 14.2866 12.279 14.2866 12.5454 14.0201L15.0533 11.5038C15.0533 11.5038 15.0539 11.5027 15.0545 11.5022C15.0545 11.5022 15.0556 11.5016 15.0561 11.5011L22.7705 3.76088C22.5018 3.63656 22.2056 3.5625 21.8906 3.5625Z" fill="#C3018D"/>
<path d="M0.224344 4.74414C0.0853125 5.0253 0 5.33739 0 5.6717V18.328C0 18.6623 0.0852187 18.9744 0.224297 19.2555L7.45631 12.0001L0.224344 4.74414Z" fill="#C3018D"/>
<path d="M23.7757 4.74414L16.5438 12.0002L23.7757 19.2557C23.9147 18.9745 24 18.6625 24 18.328V5.6718C24 5.33739 23.9147 5.0253 23.7757 4.74414Z" fill="#C3018D"/>
</g>
<defs>
<clipPath id="clip0_699_1547">
<rect width="24" height="24" fill="white"/>
</clipPath>
</defs>
</svg>
