<svg width="70" height="70" viewBox="0 0 70 70" fill="none" xmlns="http://www.w3.org/2000/svg">
<path d="M48.9732 70H21.1439C17.853 70 15.1758 67.3226 15.1758 64.0317V5.96829C15.1756 2.67735 17.853 0 21.1439 0H48.9732C52.2642 0 54.9413 2.67735 54.9413 5.96829V64.0319C54.9413 67.3226 52.264 70 48.9732 70Z" fill="#2A428C"/>
<path d="M33.215 66.2867C31.1306 64.2024 33.215 62.1604 33.215 62.1604L33.018 43.0682C30.3544 40.4045 33.215 37.9586 33.215 37.9586C33.215 37.9586 35.2163 21.5101 33.1915 18.855C31.1668 16.1998 33.9224 14.4076 33.9224 14.4076V9.9874C30.1698 9.9874 30.0659 6.7752 30.0659 6.7752C28.7715 5.48095 30.0659 4.27676 30.0659 4.27676V2.21403C28.9258 1.49151 29.2027 0.518385 29.4708 0H21.1439C17.853 0 15.1758 2.67735 15.1758 5.96812V64.0317C15.1758 67.3226 17.8531 70 21.1439 70H33.215C31.3433 68.1284 33.215 66.2867 33.215 66.2867Z" fill="#142766"/>
<path d="M30.662 4.27689H30.0661C29.4964 4.27689 29.0346 3.81512 29.0346 3.24544C29.0346 2.67577 29.4964 2.21399 30.0661 2.21399H30.662C31.2317 2.21399 31.6934 2.67577 31.6934 3.24544C31.6934 3.81512 31.2315 4.27689 30.662 4.27689Z" fill="#3C58A0"/>
<path d="M39.9085 4.27689H34.1823C33.6126 4.27689 33.1508 3.81512 33.1508 3.24544C33.1508 2.67577 33.6126 2.21399 34.1823 2.21399H39.9085C40.4782 2.21399 40.94 2.67577 40.94 3.24544C40.94 3.81512 40.4782 4.27689 39.9085 4.27689Z" fill="#3C58A0"/>
<path d="M48.9732 3.71313H44.7906C44.0108 3.71313 43.3789 4.34525 43.3789 5.12489C43.3789 6.03249 42.6363 6.77524 41.7285 6.77524H28.3886C27.4808 6.77524 26.7382 6.03266 26.7382 5.12489C26.7382 4.34525 26.1061 3.71313 25.3265 3.71313H21.1439C19.8985 3.71313 18.8889 4.7228 18.8889 5.96816V64.0318C18.8889 65.2771 19.8985 66.2868 21.1439 66.2868H48.9732C50.2186 66.2868 51.2282 65.2771 51.2282 64.0318C51.2282 58.059 51.2282 7.56226 51.2282 5.96816C51.2282 4.7228 50.2186 3.71313 48.9732 3.71313Z" fill="#E9EFFF"/>
<path d="M45.4123 18.8552H24.7049C24.0052 18.8552 23.438 19.4223 23.438 20.122V35.6835L29.1696 27.5871C30.1391 26.2178 32.1712 26.2178 33.1407 27.5871L36.8416 32.8151C37.0188 33.0654 37.3902 33.0654 37.5674 32.8151L38.3222 31.7488C39.2188 30.4822 41.0985 30.4822 41.9951 31.7488L46.1974 37.685C46.4904 37.4529 46.6791 37.0948 46.6791 36.692V20.122C46.6791 19.4223 46.112 18.8552 45.4123 18.8552Z" fill="#FFDD40"/>
<path d="M40.3826 25.6392C40.6411 24.5456 39.9641 23.4495 38.8705 23.191C37.7769 22.9325 36.6808 23.6094 36.4222 24.7031C36.1637 25.7967 36.8407 26.8928 37.9343 27.1513C39.0279 27.4098 40.1241 26.7328 40.3826 25.6392Z" fill="#FCF2C8"/>
<path d="M27.676 13.9563C28.6464 12.9859 28.6464 11.4126 27.676 10.4422C26.7056 9.47177 25.1323 9.47177 24.1619 10.4422C23.1915 11.4126 23.1915 12.9859 24.1619 13.9563C25.1323 14.9267 26.7056 14.9267 27.676 13.9563Z" fill="#816AE2"/>
<path d="M37.4825 12.7811C37.7982 11.4456 36.9715 10.1071 35.636 9.79138C34.3005 9.47569 32.9619 10.3024 32.6462 11.6379C32.3306 12.9734 33.1573 14.3119 34.4928 14.6276C35.8283 14.9433 37.1668 14.1166 37.4825 12.7811Z" fill="#FC90CE"/>
<path d="M45.155 14.4814C46.4232 13.9558 47.0252 12.5015 46.4995 11.2332C45.9738 9.965 44.5195 9.36305 43.2513 9.88873C41.9831 10.4144 41.3811 11.8687 41.9068 13.1369C42.4325 14.4052 43.8868 15.0071 45.155 14.4814Z" fill="#4FABF7"/>
<path d="M45.4123 43.0684H24.7049C24.0052 43.0684 23.438 43.6355 23.438 44.3352V59.8967L29.1696 51.8003C30.1391 50.4309 32.1712 50.4309 33.1407 51.8003L36.8416 57.0282C37.0188 57.2785 37.3902 57.2785 37.5674 57.0282L38.3222 55.9619C39.2188 54.6953 41.0985 54.6953 41.9951 55.9619L46.1974 61.8982C46.4904 61.6661 46.6791 61.3079 46.6791 60.9051V44.3353C46.6791 43.6355 46.112 43.0684 45.4123 43.0684Z" fill="#73C3F9"/>
<path d="M38.399 51.4035C39.523 51.4035 40.4341 50.4923 40.4341 49.3684C40.4341 48.2444 39.523 47.3333 38.399 47.3333C37.275 47.3333 36.3639 48.2444 36.3639 49.3684C36.3639 50.4923 37.275 51.4035 38.399 51.4035Z" fill="#FFDD40"/>
<path d="M30.8992 20.5381C30.8992 19.1505 32.3978 18.8939 33.1915 18.855H24.7047C24.005 18.855 23.4379 19.4221 23.4379 20.1218V35.6833L29.1694 27.5869C29.599 26.9802 30.2373 26.6435 30.899 26.5743C30.8992 23.8201 30.8992 21.2946 30.8992 20.5381Z" fill="#FFB332"/>
<path d="M23.4379 44.3352V59.8967L29.1694 51.8003C29.599 51.1936 30.2373 50.8568 30.899 50.7879C30.899 48.029 30.899 45.4977 30.899 44.7402C30.899 43.4487 32.1979 43.1368 33.0179 43.0684H24.7045C24.0051 43.0682 23.4379 43.6355 23.4379 44.3352Z" fill="#4FABF7"/>
<path d="M41.9951 31.56C41.0985 30.2934 39.2188 30.2934 38.3222 31.56L37.5674 32.6263C37.3902 32.8766 37.0188 32.8766 36.8416 32.6263L33.1407 27.3984C32.1712 26.0288 30.1391 26.0288 29.1696 27.3984L23.438 35.4948V36.6917C23.438 37.3914 24.0052 37.9585 24.7049 37.9585H45.4125C45.7487 37.9585 46.0535 37.8266 46.2803 37.6129L41.9951 31.56Z" fill="#2A428C"/>
<path d="M41.9951 55.7732C41.0985 54.5065 39.2188 54.5065 38.3222 55.7732L37.5674 56.8394C37.3902 57.0897 37.0188 57.0897 36.8416 56.8394L33.1407 51.6115C32.1712 50.242 30.1391 50.242 29.1696 51.6115L23.438 59.7079V60.9049C23.438 61.6046 24.0052 62.1717 24.7049 62.1717H45.4125C45.7487 62.1717 46.0535 62.0398 46.2803 61.826L41.9951 55.7732Z" fill="#4CE088"/>
<path d="M30.8992 35.319C30.8992 35.319 30.8992 30.5482 30.8992 26.386C30.2373 26.4551 29.5991 26.7917 29.1696 27.3986L23.438 35.4949V36.6921C23.438 37.3918 24.0052 37.9589 24.7049 37.9589H33.215C30.8992 37.4536 30.8992 35.319 30.8992 35.319Z" fill="#1C2E7A"/>
<path d="M33.215 62.1604C30.8992 61.6552 30.8992 59.5208 30.8992 59.5208C30.8992 59.5208 30.8992 54.7587 30.8992 50.5991C30.2373 50.6683 29.5991 51.0048 29.1696 51.6115L23.438 59.7079V60.9049C23.438 61.6046 24.0052 62.1717 24.7049 62.1717H33.2567C33.2426 62.1681 33.2297 62.1636 33.215 62.1604Z" fill="#30C16B"/>
</svg>
