<svg width="127" height="62" viewBox="0 0 127 62" fill="none" xmlns="http://www.w3.org/2000/svg">
<path d="M43.2904 36.1866C42.0958 36.1866 41.0506 35.9241 40.1546 35.399C39.2587 34.874 38.556 34.0776 38.0466 33.01C37.5547 31.9249 37.3088 30.5597 37.3088 28.9145C37.3088 27.2518 37.5459 25.8867 38.0202 24.8191C38.4946 23.7514 39.1797 22.9551 40.0756 22.43C40.9715 21.905 42.0431 21.6424 43.2904 21.6424C44.6254 21.6424 45.82 21.9487 46.874 22.5613C47.9456 23.1564 48.7888 23.9965 49.4037 25.0816C50.0361 26.1667 50.3523 27.4444 50.3523 28.9145C50.3523 30.4022 50.0361 31.6886 49.4037 32.7737C48.7888 33.8589 47.9456 34.699 46.874 35.294C45.82 35.8891 44.6254 36.1866 43.2904 36.1866ZM34.9109 41.0697V21.8525H38.8371V24.7403L38.7581 28.9408L39.0216 33.115V41.0697H34.9109ZM42.5789 32.8262C43.264 32.8262 43.8701 32.6687 44.3971 32.3537C44.9417 32.0386 45.372 31.5923 45.6882 31.0148C46.022 30.4197 46.1889 29.7196 46.1889 28.9145C46.1889 28.0919 46.022 27.3919 45.6882 26.8143C45.372 26.2367 44.9417 25.7904 44.3971 25.4754C43.8701 25.1603 43.264 25.0028 42.5789 25.0028C41.8938 25.0028 41.2789 25.1603 40.7344 25.4754C40.1898 25.7904 39.7594 26.2367 39.4432 26.8143C39.127 27.3919 38.9689 28.0919 38.9689 28.9145C38.9689 29.7196 39.127 30.4197 39.4432 31.0148C39.7594 31.5923 40.1898 32.0386 40.7344 32.3537C41.2789 32.6687 41.8938 32.8262 42.5789 32.8262Z" fill="white"/>
<path d="M60.1397 36.1866C58.5235 36.1866 57.1006 35.8716 55.8709 35.2415C54.6587 34.6114 53.7189 33.7538 53.0514 32.6687C52.3838 31.5661 52.05 30.3147 52.05 28.9145C52.05 27.4969 52.375 26.2455 53.025 25.1603C53.6926 24.0577 54.5973 23.2001 55.7391 22.5875C56.881 21.9575 58.1721 21.6424 59.6126 21.6424C61.0004 21.6424 62.2477 21.94 63.3544 22.535C64.4787 23.1126 65.3658 23.9527 66.0158 25.0553C66.6658 26.1405 66.9908 27.4444 66.9908 28.967C66.9908 29.1246 66.982 29.3083 66.9644 29.5184C66.9469 29.7109 66.9293 29.8946 66.9117 30.0697H55.3966V27.6806H64.751L63.17 28.3895C63.17 27.6544 63.0206 27.0156 62.722 26.473C62.4234 25.9304 62.0105 25.5104 61.4835 25.2128C60.9565 24.8978 60.3417 24.7403 59.639 24.7403C58.9363 24.7403 58.3127 24.8978 57.7681 25.2128C57.2411 25.5104 56.8283 25.9392 56.5296 26.4992C56.231 27.0418 56.0817 27.6894 56.0817 28.442V29.072C56.0817 29.8421 56.2486 30.5247 56.5823 31.1198C56.9337 31.6974 57.4168 32.1437 58.0316 32.4587C58.664 32.7562 59.4018 32.905 60.2451 32.905C61.0004 32.905 61.6592 32.7912 62.2213 32.5637C62.8011 32.3362 63.3281 31.9949 63.8024 31.5398L65.9895 33.9026C65.3395 34.6377 64.5226 35.2065 63.5389 35.6091C62.5551 35.9941 61.422 36.1866 60.1397 36.1866Z" fill="white"/>
<path d="M76.4733 36.1866C74.9625 36.1866 73.6186 35.8716 72.4416 35.2415C71.2822 34.6114 70.3599 33.7538 69.6748 32.6687C69.0073 31.5661 68.6735 30.3147 68.6735 28.9145C68.6735 27.4969 69.0073 26.2455 69.6748 25.1603C70.3599 24.0577 71.2822 23.2001 72.4416 22.5875C73.6186 21.9575 74.9625 21.6424 76.4733 21.6424C77.9665 21.6424 79.3015 21.9575 80.4785 22.5875C81.6555 23.2001 82.5778 24.049 83.2453 25.1341C83.9129 26.2192 84.2467 27.4794 84.2467 28.9145C84.2467 30.3147 83.9129 31.5661 83.2453 32.6687C82.5778 33.7538 81.6555 34.6114 80.4785 35.2415C79.3015 35.8716 77.9665 36.1866 76.4733 36.1866ZM76.4733 32.8262C77.1584 32.8262 77.7732 32.6687 78.3178 32.3537C78.8624 32.0386 79.2928 31.5923 79.609 31.0148C79.9252 30.4197 80.0833 29.7196 80.0833 28.9145C80.0833 28.0919 79.9252 27.3919 79.609 26.8143C79.2928 26.2367 78.8624 25.7904 78.3178 25.4754C77.7732 25.1603 77.1584 25.0028 76.4733 25.0028C75.7881 25.0028 75.1733 25.1603 74.6287 25.4754C74.0841 25.7904 73.645 26.2367 73.3112 26.8143C72.995 27.3919 72.8369 28.0919 72.8369 28.9145C72.8369 29.7196 72.995 30.4197 73.3112 31.0148C73.645 31.5923 74.0841 32.0386 74.6287 32.3537C75.1733 32.6687 75.7881 32.8262 76.4733 32.8262Z" fill="white"/>
<path d="M95.3738 36.1866C94.1792 36.1866 93.134 35.9241 92.2381 35.399C91.3422 34.874 90.6395 34.0776 90.13 33.01C89.6382 31.9249 89.3922 30.5597 89.3922 28.9145C89.3922 27.2518 89.6294 25.8867 90.1037 24.8191C90.578 23.7514 91.2631 22.9551 92.159 22.43C93.0549 21.905 94.1265 21.6424 95.3738 21.6424C96.7089 21.6424 97.9034 21.9487 98.9575 22.5613C100.029 23.1564 100.872 23.9965 101.487 25.0816C102.12 26.1667 102.436 27.4444 102.436 28.9145C102.436 30.4022 102.12 31.6886 101.487 32.7737C100.872 33.8589 100.029 34.699 98.9575 35.294C97.9034 35.8891 96.7089 36.1866 95.3738 36.1866ZM86.9943 41.0697V21.8525H90.9205V24.7403L90.8415 28.9408L91.105 33.115V41.0697H86.9943ZM94.6623 32.8262C95.3474 32.8262 95.9535 32.6687 96.4805 32.3537C97.0251 32.0386 97.4555 31.5923 97.7717 31.0148C98.1055 30.4197 98.2723 29.7196 98.2723 28.9145C98.2723 28.0919 98.1055 27.3919 97.7717 26.8143C97.4555 26.2367 97.0251 25.7904 96.4805 25.4754C95.9535 25.1603 95.3474 25.0028 94.6623 25.0028C93.9772 25.0028 93.3624 25.1603 92.8178 25.4754C92.2732 25.7904 91.8428 26.2367 91.5266 26.8143C91.2104 27.3919 91.0523 28.0919 91.0523 28.9145C91.0523 29.7196 91.2104 30.4197 91.5266 31.0148C91.8428 31.5923 92.2732 32.0386 92.8178 32.3537C93.3624 32.6687 93.9772 32.8262 94.6623 32.8262Z" fill="white"/>
<path d="M105.188 35.9766V16.4968H109.298V35.9766H105.188Z" fill="white"/>
<path d="M120.149 36.1866C118.533 36.1866 117.11 35.8716 115.88 35.2415C114.668 34.6114 113.728 33.7538 113.061 32.6687C112.393 31.5661 112.059 30.3147 112.059 28.9145C112.059 27.4969 112.384 26.2455 113.034 25.1603C113.702 24.0577 114.606 23.2001 115.748 22.5875C116.89 21.9575 118.181 21.6424 119.622 21.6424C121.01 21.6424 122.257 21.94 123.364 22.535C124.488 23.1126 125.375 23.9527 126.025 25.0553C126.675 26.1405 127 27.4444 127 28.967C127 29.1246 126.991 29.3083 126.974 29.5184C126.956 29.7109 126.938 29.8946 126.921 30.0697H115.406V27.6806H124.76L123.179 28.3895C123.179 27.6544 123.03 27.0156 122.731 26.473C122.433 25.9304 122.02 25.5104 121.493 25.2128C120.966 24.8978 120.351 24.7403 119.648 24.7403C118.945 24.7403 118.322 24.8978 117.777 25.2128C117.25 25.5104 116.837 25.9392 116.539 26.4992C116.24 27.0418 116.091 27.6894 116.091 28.442V29.072C116.091 29.8421 116.258 30.5247 116.592 31.1198C116.943 31.6974 117.426 32.1437 118.041 32.4587C118.673 32.7562 119.411 32.905 120.254 32.905C121.01 32.905 121.668 32.7912 122.231 32.5637C122.81 32.3362 123.337 31.9949 123.812 31.5398L125.999 33.9026C125.349 34.6377 124.532 35.2065 123.548 35.6091C122.564 35.9941 121.431 36.1866 120.149 36.1866Z" fill="white"/>
<path d="M10.5577 0.313232H0.233459V10.6002H10.5577V0.313232Z" fill="#C3018D"/>
<path d="M0.233459 20.6172V12.3076L30.8483 12.3184V20.6172H22.4761L22.4436 43.1469L12.141 52.148V20.6063L0.233459 20.6172Z" fill="white"/>
<path d="M0.233459 22.3999H10.5252L10.536 61.1381L0.233459 52.1478V22.3999Z" fill="white"/>
</svg>
