<svg width="40" height="40" viewBox="0 0 40 40" fill="none" xmlns="http://www.w3.org/2000/svg">
<rect width="40" height="40" rx="20" fill="#C3018D"/>
<path d="M17.112 14.1418C16.9388 14.138 16.7688 14.1882 16.6255 14.2855C16.4822 14.3828 16.3728 14.5224 16.3124 14.6848C16.2521 14.8471 16.2439 15.0242 16.2889 15.1915C16.3338 15.3588 16.4298 15.5078 16.5635 15.618L21.6628 19.9865L16.5635 24.3534C16.471 24.4214 16.3936 24.5076 16.3361 24.6069C16.2785 24.7061 16.2421 24.8162 16.229 24.9302C16.216 25.0442 16.2266 25.1596 16.2603 25.2693C16.2939 25.379 16.3498 25.4806 16.4246 25.5677C16.4993 25.6548 16.5912 25.7254 16.6945 25.7753C16.7978 25.8252 16.9103 25.8532 17.0249 25.8577C17.1396 25.8621 17.2539 25.8429 17.3607 25.8011C17.4676 25.7592 17.5646 25.6958 17.6458 25.6148L23.4841 20.6196C23.5757 20.5414 23.6494 20.4443 23.6998 20.3348C23.7503 20.2254 23.7765 20.1062 23.7765 19.9857C23.7765 19.8652 23.7503 19.746 23.6998 19.6366C23.6494 19.5272 23.5757 19.4299 23.4841 19.3517L17.6458 14.3517C17.4984 14.2207 17.3092 14.1463 17.112 14.1416V14.1418Z" fill="white"/>
</svg>
