<svg width="40" height="40" viewBox="0 0 40 40" fill="none" xmlns="http://www.w3.org/2000/svg">
<rect width="40" height="40" rx="20" fill="#C3018D"/>
<path d="M22.8881 14.1418C23.0612 14.138 23.2313 14.1882 23.3746 14.2855C23.5179 14.3828 23.6273 14.5224 23.6876 14.6848C23.748 14.8471 23.7562 15.0242 23.7112 15.1915C23.6662 15.3588 23.5702 15.5078 23.4366 15.618L18.3373 19.9865L23.4366 24.3534C23.529 24.4214 23.6065 24.5076 23.664 24.6069C23.7215 24.7061 23.758 24.8162 23.771 24.9302C23.7841 25.0442 23.7734 25.1596 23.7398 25.2693C23.7061 25.379 23.6502 25.4806 23.5755 25.5677C23.5008 25.6548 23.4089 25.7254 23.3056 25.7753C23.2023 25.8252 23.0898 25.8532 22.9751 25.8577C22.8605 25.8621 22.7462 25.8429 22.6393 25.8011C22.5325 25.7592 22.4354 25.6958 22.3542 25.6148L16.516 20.6196C16.4243 20.5414 16.3507 20.4443 16.3002 20.3348C16.2497 20.2254 16.2236 20.1062 16.2236 19.9857C16.2236 19.8652 16.2497 19.746 16.3002 19.6366C16.3507 19.5272 16.4243 19.4299 16.516 19.3517L22.3542 14.3517C22.5017 14.2207 22.6909 14.1463 22.8881 14.1416V14.1418Z" fill="white"/>
</svg>
