<svg width="24" height="24" viewBox="0 0 24 24" fill="none" xmlns="http://www.w3.org/2000/svg">
<path d="M12.2486 0.0202511C13.5757 0 14.8952 0.0120006 16.2131 0C16.293 1.53083 16.8512 3.09017 17.9874 4.17247C19.1213 5.28178 20.7252 5.78956 22.2857 5.96132V9.98828C20.8233 9.94103 19.354 9.64102 18.0269 9.01998C17.4489 8.76197 16.9105 8.4297 16.3835 8.08993C16.3766 11.0121 16.3956 13.9305 16.3645 16.8406C16.2854 18.2387 15.8177 19.63 14.9933 20.7821C13.667 22.7 11.3649 23.9503 9.00054 23.9893C7.55026 24.071 6.10151 23.681 4.8657 22.9625C2.81767 21.7714 1.37652 19.591 1.16663 17.2509C1.14229 16.7506 1.13392 16.2511 1.15446 15.7628C1.33698 13.86 2.2914 12.0396 3.77286 10.8013C5.45204 9.359 7.80427 8.67196 10.0067 9.07849C10.0272 10.5598 9.96713 12.0396 9.96713 13.521C8.96099 13.2 7.78526 13.29 6.90612 13.8922C6.26426 14.3025 5.77678 14.931 5.52277 15.6421C5.31287 16.1491 5.37295 16.7124 5.38512 17.2509C5.6262 18.892 7.22629 20.2713 8.93437 20.1221C10.0668 20.1101 11.152 19.462 11.7421 18.5132C11.933 18.181 12.1467 17.8412 12.1581 17.4504C12.2578 15.6616 12.2182 13.8802 12.2304 12.0914C12.2387 8.05993 12.2174 4.03897 12.2486 0.0202511Z"/>
</svg>
