<svg width="24" height="24" viewBox="0 0 24 24" fill="none" xmlns="http://www.w3.org/2000/svg">
<path d="M14.3987 0H9.60072C4.98265 0 1.20422 3.77843 1.20422 8.3965V11.995C1.20422 15.2337 3.09344 18.2024 6.00222 19.5818V23.6002C6.00222 23.96 6.45204 24.1399 6.69194 23.8701L10.1705 20.3915H14.3987C19.0168 20.3915 22.7952 16.6131 22.7952 11.995V8.3965C22.7952 3.77843 19.0168 0 14.3987 0ZM17.5474 15.7434L16.3179 16.9429C15.0285 18.2024 11.6999 16.763 8.76107 13.7643C5.8223 10.7655 4.53284 7.40691 5.76232 6.14744L6.96182 4.94794C7.41164 4.49813 8.16132 4.52811 8.67111 4.97793L10.4104 6.77718C11.0401 7.40691 10.7702 8.48646 9.96057 8.72636C9.39081 8.90629 9.00097 9.53603 9.1809 10.1058C9.48077 11.4252 11.1601 13.1045 12.4195 13.4344C12.9893 13.5544 13.619 13.2545 13.829 12.6847C14.0988 11.8751 15.1784 11.6352 15.7781 12.2649L17.5174 14.0641C17.9972 14.484 17.9972 15.2337 17.5474 15.7434ZM13.0793 5.69763C12.9593 5.69763 12.8394 5.69763 12.7194 5.72761C12.5095 5.7576 12.2996 5.57768 12.2696 5.36776C12.2396 5.15785 12.4195 4.94794 12.6295 4.91795C12.7794 4.88796 12.9293 4.88796 13.0793 4.88796C15.2684 4.88796 17.0676 6.68721 17.0676 8.8763C17.0676 9.02624 17.0676 9.17618 17.0376 9.32611C17.0076 9.53603 16.7977 9.71595 16.5878 9.68596C16.3779 9.65598 16.198 9.44606 16.228 9.23615C16.228 9.1162 16.2579 8.99625 16.2579 8.8763C16.2879 7.13703 14.8485 5.69763 13.0793 5.69763ZM15.4783 8.90629C15.4783 9.1162 15.2983 9.29613 15.0884 9.29613C14.8785 9.29613 14.6986 9.1162 14.6986 8.90629C14.6986 8.03665 13.9789 7.31695 13.1093 7.31695C12.8993 7.31695 12.7194 7.13703 12.7194 6.92711C12.7194 6.7172 12.8993 6.53728 13.1093 6.53728C14.3987 6.50729 15.4783 7.58684 15.4783 8.90629ZM18.537 10.1958C18.477 10.4057 18.2671 10.5556 18.0272 10.4956C17.8173 10.4357 17.6973 10.2257 17.7573 10.0158C17.8473 9.65598 17.8773 9.29613 17.8773 8.90629C17.8773 6.26739 15.7182 4.10829 13.0793 4.10829C12.9593 4.10829 12.8394 4.10829 12.7194 4.10829C12.5095 4.10829 12.2996 3.95835 12.2996 3.74844C12.2996 3.53853 12.4495 3.32861 12.6594 3.32861C12.8094 3.32861 12.9593 3.29863 13.0793 3.29863C16.168 3.29863 18.6869 5.81758 18.6869 8.90629C18.6869 9.32611 18.627 9.77593 18.537 10.1958Z" fill="#C3018D"/>
</svg>
