<svg width="10" height="16" viewBox="0 0 10 16" fill="none" xmlns="http://www.w3.org/2000/svg">
<path d="M1.24553 0.384418C1.02041 0.379466 0.799335 0.444726 0.61305 0.571224C0.426766 0.697722 0.284522 0.879206 0.206096 1.09028C0.127671 1.30136 0.11696 1.53159 0.175452 1.74904C0.233945 1.96648 0.358734 2.16021 0.532472 2.30346L7.16154 7.98249L0.532472 13.6595C0.412289 13.7478 0.311639 13.86 0.236824 13.989C0.16201 14.1181 0.114643 14.2612 0.0976895 14.4094C0.0807361 14.5575 0.0945618 14.7076 0.1383 14.8502C0.182039 14.9928 0.254748 15.1249 0.351875 15.2381C0.449003 15.3513 0.568455 15.4431 0.702752 15.508C0.837048 15.5728 0.983297 15.6093 1.13234 15.615C1.28138 15.6208 1.43 15.5958 1.5689 15.5414C1.7078 15.4871 1.83398 15.4047 1.93954 15.2993L9.52922 8.80556C9.6484 8.70385 9.74411 8.5776 9.80974 8.43532C9.87537 8.29304 9.90935 8.13817 9.90935 7.98149C9.90935 7.8248 9.87537 7.66994 9.80974 7.52765C9.74411 7.38537 9.6484 7.259 9.52922 7.15729L1.93954 0.657317C1.74781 0.487019 1.50189 0.390201 1.24553 0.384168V0.384418Z" fill="#C3018D"/>
</svg>
