<svg width="70" height="70" viewBox="0 0 70 70" fill="none" xmlns="http://www.w3.org/2000/svg">
<g clip-path="url(#clip0_769_846)">
<path d="M61.1524 35C61.1524 33.97 61.0922 32.9544 60.9759 31.9557C60.8263 30.6715 61.3351 29.3982 62.307 28.5456L66.308 25.0354C67.666 23.8441 67.9711 21.8491 67.0315 20.3062L62.7523 13.2808C61.8126 11.7379 59.8998 11.0938 58.2183 11.7538L53.2308 13.7114C52.0236 14.1852 50.6668 14.0192 49.5914 13.2946C48.436 12.5163 47.215 11.8278 45.9385 11.2391C44.7639 10.6974 43.9205 9.62582 43.6977 8.35169L42.7758 3.07808C42.4646 1.29843 40.9195 0 39.113 0H30.887C29.0805 0 27.5354 1.29843 27.2244 3.07794L26.3024 8.35155C26.0797 9.62569 25.2362 10.6974 24.0616 11.239C22.7851 11.8277 21.5641 12.5161 20.4087 13.2945C19.3332 14.0189 17.9764 14.1849 16.7694 13.7112L11.7817 11.7537C10.1 11.0938 8.1874 11.7379 7.24775 13.2806L2.96869 20.306C2.02904 21.8489 2.33416 23.8439 3.69216 25.0353L7.69314 28.5455C8.66504 29.3981 9.17385 30.6714 9.02424 31.9556C8.90785 32.9542 8.84773 33.97 8.84773 34.9999C8.84773 36.0297 8.90798 37.0455 9.02424 38.0442C9.17385 39.3283 8.66504 40.6016 7.69314 41.4543L3.69216 44.9644C2.33416 46.1558 2.02904 48.1508 2.96869 49.6937L7.24775 56.7191C8.1874 58.262 10.1002 58.9061 11.7817 58.246L16.7693 56.2885C17.9764 55.8147 19.3332 55.9808 20.4086 56.7052C21.564 57.4836 22.785 58.1721 24.0615 58.7607C25.2361 59.3025 26.0795 60.374 26.3023 61.6482L27.2242 66.9218C27.5354 68.7016 29.0805 69.451 30.887 69.451H39.113C40.9195 69.451 42.4646 68.7016 42.7756 66.9221L43.6976 61.6485C43.9203 60.3743 44.7638 59.3026 45.9384 58.761C47.2149 58.1723 48.4359 57.4839 49.5913 56.7055C50.6668 55.9811 52.0236 55.8151 53.2306 56.2888L58.2182 58.2463C59.8998 58.9064 61.8125 58.2621 62.7521 56.7194L67.0312 49.694C67.9708 48.1511 67.6657 46.1561 66.3077 44.9647L62.3067 41.4546C61.3348 40.6019 60.826 39.3286 60.9756 38.0445C61.0923 37.0457 61.1524 36.03 61.1524 35Z" fill="url(#paint0_linear_769_846)"/>
<path d="M35 56.3776C46.8065 56.3776 56.3776 46.8065 56.3776 35C56.3776 23.1935 46.8065 13.6224 35 13.6224C23.1935 13.6224 13.6224 23.1935 13.6224 35C13.6224 46.8065 23.1935 56.3776 35 56.3776Z" fill="url(#paint1_linear_769_846)"/>
<path d="M42.7756 66.9221C43.1424 64.8243 43.3267 62.6988 43.3267 60.5691V46.0261H26.6732V60.5691C26.6732 62.6988 26.8575 64.8243 27.2242 66.9221C27.5354 68.7016 29.0805 70 30.887 70H39.113C40.9195 70 42.4646 68.7016 42.7756 66.9221Z" fill="url(#paint2_linear_769_846)"/>
<path d="M26.6732 50.5315L42.8161 66.6745C43.1547 64.6571 43.3267 62.615 43.3267 60.5691V46.0261H26.6732V50.5315Z" fill="url(#paint3_linear_769_846)"/>
<path d="M52.6153 35C52.6153 44.7286 44.7288 52.6151 35.0001 52.6153C25.2715 52.6154 17.402 44.7607 17.3847 35.0321C17.3741 29.1094 20.2864 23.8657 24.7609 20.6645C25.5606 20.0924 26.6726 20.6607 26.6726 21.6438V33.2707C26.6726 34.6847 27.427 35.9914 28.6515 36.6985L33.0208 39.2212C34.2455 39.9284 35.7544 39.9284 36.9791 39.2212L41.3483 36.6985C42.5729 35.9915 43.3273 34.6848 43.3273 33.2707V21.6434C43.3273 20.6653 44.4338 20.0893 45.2297 20.6578C49.7015 23.8527 52.6153 29.0863 52.6153 35Z" fill="url(#paint4_linear_769_846)"/>
<path d="M21.9639 36.4838C21.9639 38.6974 23.1449 40.7429 25.0619 41.8497L31.9017 45.799C33.8189 46.9059 36.1811 46.9059 38.0983 45.799L44.9381 41.8497C46.8551 40.7429 48.0361 38.6974 48.0361 36.4838V23.1549C47.1925 22.2272 46.2524 21.3887 45.2297 20.658C44.4338 20.0893 43.3273 20.6654 43.3273 21.6436V33.2709C43.3273 34.6849 42.5729 35.9916 41.3483 36.6987L36.9791 39.2215C35.7544 39.9286 34.2455 39.9286 33.0208 39.2215L28.6516 36.6987C27.427 35.9917 26.6726 34.685 26.6726 33.2709V21.644C26.6726 20.6607 25.5606 20.0926 24.7609 20.6647C23.7418 21.3938 22.8048 22.23 21.9638 23.1548V36.4838H21.9639Z" fill="url(#paint5_linear_769_846)"/>
</g>
<defs>
<linearGradient id="paint0_linear_769_846" x1="17.3493" y1="17.3493" x2="54.2851" y2="54.2851" gradientUnits="userSpaceOnUse">
<stop stop-color="#7FAEF4"/>
<stop offset="1" stop-color="#4C8DF1"/>
</linearGradient>
<linearGradient id="paint1_linear_769_846" x1="59.1287" y1="59.1288" x2="8.93969" y2="8.93971" gradientUnits="userSpaceOnUse">
<stop stop-color="#7FAEF4"/>
<stop offset="1" stop-color="#4C8DF1"/>
</linearGradient>
<linearGradient id="paint2_linear_769_846" x1="34.3873" y1="56.0637" x2="44.8915" y2="66.568" gradientUnits="userSpaceOnUse">
<stop stop-color="#E3E5E4"/>
<stop offset="1" stop-color="#CBD0E4"/>
</linearGradient>
<linearGradient id="paint3_linear_769_846" x1="40.1133" y1="59.8511" x2="33.1591" y2="44.1127" gradientUnits="userSpaceOnUse">
<stop stop-color="#CBD0E4" stop-opacity="0"/>
<stop offset="1" stop-color="#6A7D83"/>
</linearGradient>
<linearGradient id="paint4_linear_769_846" x1="28.5467" y1="28.5513" x2="51.5487" y2="51.5533" gradientUnits="userSpaceOnUse">
<stop stop-color="#E3E5E4"/>
<stop offset="1" stop-color="#CBD0E4"/>
</linearGradient>
<linearGradient id="paint5_linear_769_846" x1="44.7793" y1="40.8678" x2="18.7006" y2="14.789" gradientUnits="userSpaceOnUse">
<stop stop-color="#E3E5E4"/>
<stop offset="1" stop-color="#CBD0E4"/>
</linearGradient>
<clipPath id="clip0_769_846">
<rect width="70" height="70" fill="white"/>
</clipPath>
</defs>
</svg>
