<svg width="24" height="24" viewBox="0 0 24 24" fill="none" xmlns="http://www.w3.org/2000/svg">
<path d="M18.9765 4.44092C18.6552 4.44092 18.3938 4.70234 18.3938 5.02357C18.3938 5.34481 18.6552 5.60623 18.9765 5.60623C19.2977 5.60623 19.5591 5.34486 19.5591 5.02357C19.5591 4.70229 19.2977 4.44092 18.9765 4.44092Z"/>
<path d="M12 6.83459C9.15178 6.83459 6.83456 9.15181 6.83456 12C6.83456 14.8483 9.15178 17.1655 12 17.1655C14.8483 17.1655 17.1655 14.8483 17.1655 12.0001C17.1655 9.15186 14.8483 6.83459 12 6.83459Z"/>
<path d="M17.4208 0H6.57923C2.95144 0 0 2.95144 0 6.57928V17.4208C0 21.0486 2.95144 24 6.57923 24H17.4208C21.0486 24 24 21.0486 24 17.4208V6.57928C24 2.95144 21.0486 0 17.4208 0ZM12 18.5828C8.37023 18.5828 5.4173 15.6298 5.4173 12C5.4173 8.37023 8.37028 5.41734 12 5.41734C15.6297 5.41734 18.5828 8.37028 18.5828 12C18.5828 15.6297 15.6297 18.5828 12 18.5828ZM18.9765 7.02356C17.8737 7.02356 16.9765 6.12637 16.9765 5.02359C16.9765 3.92081 17.8737 3.02358 18.9765 3.02358C20.0792 3.02358 20.9764 3.92077 20.9764 5.02355C20.9764 6.12633 20.0792 7.02356 18.9765 7.02356Z"/>
</svg>
