<svg xmlns="http://www.w3.org/2000/svg" xmlns:xlink="http://www.w3.org/1999/xlink"><defs>
<filter id="filter0_b_1082_819" x="-10" y="-10" width="32" height="32" filterUnits="userSpaceOnUse" color-interpolation-filters="sRGB">
<feFlood flood-opacity="0" result="BackgroundImageFix"/>
<feGaussianBlur in="BackgroundImage" stdDeviation="5"/>
<feComposite in2="SourceAlpha" operator="in" result="effect1_backgroundBlur_1082_819"/>
<feBlend mode="normal" in="SourceGraphic" in2="effect1_backgroundBlur_1082_819" result="shape"/>
</filter>
<linearGradient id="paint0_linear_1082_819" x1="10.9538" y1="0.248815" x2="10.7367" y2="11.4894" gradientUnits="userSpaceOnUse">
<stop stop-color="white" stop-opacity="0.5"/>
<stop offset="0.198003" stop-color="white" stop-opacity="0"/>
<stop offset="0.646925" stop-color="white" stop-opacity="0"/>
<stop offset="1" stop-color="white" stop-opacity="0.54"/>
</linearGradient>

<filter id="filter0_b_1082_817" x="-10" y="-10" width="32" height="32" filterUnits="userSpaceOnUse" color-interpolation-filters="sRGB">
<feFlood flood-opacity="0" result="BackgroundImageFix"/>
<feGaussianBlur in="BackgroundImage" stdDeviation="5"/>
<feComposite in2="SourceAlpha" operator="in" result="effect1_backgroundBlur_1082_817"/>
<feBlend mode="normal" in="SourceGraphic" in2="effect1_backgroundBlur_1082_817" result="shape"/>
</filter>
<linearGradient id="paint0_linear_1082_817" x1="10.9538" y1="0.248815" x2="10.7367" y2="11.4894" gradientUnits="userSpaceOnUse">
<stop stop-color="white" stop-opacity="0.5"/>
<stop offset="0.198003" stop-color="white" stop-opacity="0"/>
<stop offset="0.646925" stop-color="white" stop-opacity="0"/>
<stop offset="1" stop-color="white" stop-opacity="0.54"/>
</linearGradient>

<clipPath id="clip0_699_1547">
<rect width="24" height="24" fill="white"/>
</clipPath>

<linearGradient id="paint0_linear_769_846" x1="17.3493" y1="17.3493" x2="54.2851" y2="54.2851" gradientUnits="userSpaceOnUse">
<stop stop-color="#7FAEF4"/>
<stop offset="1" stop-color="#4C8DF1"/>
</linearGradient>
<linearGradient id="paint1_linear_769_846" x1="59.1287" y1="59.1288" x2="8.93969" y2="8.93971" gradientUnits="userSpaceOnUse">
<stop stop-color="#7FAEF4"/>
<stop offset="1" stop-color="#4C8DF1"/>
</linearGradient>
<linearGradient id="paint2_linear_769_846" x1="34.3873" y1="56.0637" x2="44.8915" y2="66.568" gradientUnits="userSpaceOnUse">
<stop stop-color="#E3E5E4"/>
<stop offset="1" stop-color="#CBD0E4"/>
</linearGradient>
<linearGradient id="paint3_linear_769_846" x1="40.1133" y1="59.8511" x2="33.1591" y2="44.1127" gradientUnits="userSpaceOnUse">
<stop stop-color="#CBD0E4" stop-opacity="0"/>
<stop offset="1" stop-color="#6A7D83"/>
</linearGradient>
<linearGradient id="paint4_linear_769_846" x1="28.5467" y1="28.5513" x2="51.5487" y2="51.5533" gradientUnits="userSpaceOnUse">
<stop stop-color="#E3E5E4"/>
<stop offset="1" stop-color="#CBD0E4"/>
</linearGradient>
<linearGradient id="paint5_linear_769_846" x1="44.7793" y1="40.8678" x2="18.7006" y2="14.789" gradientUnits="userSpaceOnUse">
<stop stop-color="#E3E5E4"/>
<stop offset="1" stop-color="#CBD0E4"/>
</linearGradient>
<clipPath id="clip0_769_846">
<rect width="70" height="70" fill="white"/>
</clipPath>

<clipPath id="clip0_699_1543">
<rect width="24" height="24" fill="white"/>
</clipPath>

<clipPath id="clip0_699_1532">
<rect width="24" height="24" fill="white"/>
</clipPath>

<clipPath id="clip0_699_1574">
<rect width="24" height="24" fill="white"/>
</clipPath>

<clipPath id="clip0_699_1532">
<rect width="24" height="24" fill="white"/>
</clipPath>
</defs><symbol id="arrow-r" viewBox="0 0 10 16">
<path d="M1.24553 0.384418C1.02041 0.379466 0.799335 0.444726 0.61305 0.571224C0.426766 0.697722 0.284522 0.879206 0.206096 1.09028C0.127671 1.30136 0.11696 1.53159 0.175452 1.74904C0.233945 1.96648 0.358734 2.16021 0.532472 2.30346L7.16154 7.98249L0.532472 13.6595C0.412289 13.7478 0.311639 13.86 0.236824 13.989C0.16201 14.1181 0.114643 14.2612 0.0976895 14.4094C0.0807361 14.5575 0.0945618 14.7076 0.1383 14.8502C0.182039 14.9928 0.254748 15.1249 0.351875 15.2381C0.449003 15.3513 0.568455 15.4431 0.702752 15.508C0.837048 15.5728 0.983297 15.6093 1.13234 15.615C1.28138 15.6208 1.43 15.5958 1.5689 15.5414C1.7078 15.4871 1.83398 15.4047 1.93954 15.2993L9.52922 8.80556C9.6484 8.70385 9.74411 8.5776 9.80974 8.43532C9.87537 8.29304 9.90935 8.13817 9.90935 7.98149C9.90935 7.8248 9.87537 7.66994 9.80974 7.52765C9.74411 7.38537 9.6484 7.259 9.52922 7.15729L1.93954 0.657317C1.74781 0.487019 1.50189 0.390201 1.24553 0.384168V0.384418Z" fill="#C3018D"/>
</symbol><symbol id="bullet-active" viewBox="0 0 12 12">
<g filter="url(#filter0_b_1082_819)">
<circle cx="6" cy="6" r="6" fill="#C3018D"/>
<circle cx="6" cy="6" r="5" stroke="url(#paint0_linear_1082_819)" stroke-width="2" style="mix-blend-mode:overlay"/>
</g>

</symbol><symbol id="bullet" viewBox="0 0 12 12">
<g filter="url(#filter0_b_1082_817)">
<circle cx="6" cy="6" r="6" fill="#FFA7F2" fill-opacity="0.07"/>
<circle cx="6" cy="6" r="5" stroke="url(#paint0_linear_1082_817)" stroke-width="2" style="mix-blend-mode:overlay"/>
</g>

</symbol><symbol id="close" viewBox="0 0 16 17">
<path d="M9.76291 8.5L15.1379 3.1375C15.3733 2.90212 15.5055 2.58288 15.5055 2.25C15.5055 1.91713 15.3733 1.59788 15.1379 1.3625C14.9025 1.12712 14.5833 0.994888 14.2504 0.994888C13.9175 0.994888 13.5983 1.12712 13.3629 1.3625L8.00041 6.7375L2.63791 1.3625C2.40253 1.12712 2.08329 0.994888 1.75041 0.994888C1.41754 0.994888 1.09829 1.12712 0.862912 1.3625C0.627532 1.59788 0.495297 1.91713 0.495297 2.25C0.495297 2.58288 0.627532 2.90212 0.862912 3.1375L6.23791 8.5L0.862912 13.8625C0.745751 13.9787 0.652759 14.117 0.589298 14.2693C0.525837 14.4216 0.493164 14.585 0.493164 14.75C0.493164 14.915 0.525837 15.0784 0.589298 15.2307C0.652759 15.383 0.745751 15.5213 0.862912 15.6375C0.979116 15.7547 1.11737 15.8477 1.26969 15.9111C1.42202 15.9746 1.5854 16.0072 1.75041 16.0072C1.91543 16.0072 2.07881 15.9746 2.23113 15.9111C2.38346 15.8477 2.52171 15.7547 2.63791 15.6375L8.00041 10.2625L13.3629 15.6375C13.4791 15.7547 13.6174 15.8477 13.7697 15.9111C13.922 15.9746 14.0854 16.0072 14.2504 16.0072C14.4154 16.0072 14.5788 15.9746 14.7311 15.9111C14.8835 15.8477 15.0217 15.7547 15.1379 15.6375C15.2551 15.5213 15.3481 15.383 15.4115 15.2307C15.475 15.0784 15.5077 14.915 15.5077 14.75C15.5077 14.585 15.475 14.4216 15.4115 14.2693C15.3481 14.117 15.2551 13.9787 15.1379 13.8625L9.76291 8.5Z"/>
</symbol><symbol id="email" viewBox="0 0 24 24">
<g clip-path="url(#clip0_699_1547)">
<path d="M15.5511 12.9961L13.541 15.0129C12.7259 15.8309 11.2917 15.8485 10.459 15.0129L8.44887 12.9961L1.22937 20.239C1.4981 20.3633 1.7944 20.4375 2.1094 20.4375H21.8907C22.2057 20.4375 22.5019 20.3634 22.7705 20.2391L15.5511 12.9961Z" fill="#C3018D"/>
<path d="M21.8906 3.5625H2.10937C1.79437 3.5625 1.49807 3.63666 1.22943 3.76092L8.94398 11.5011C8.94449 11.5016 8.9451 11.5017 8.94562 11.5022C8.94613 11.5027 8.94623 11.5034 8.94623 11.5034L11.4546 14.0201C11.7211 14.2866 12.279 14.2866 12.5454 14.0201L15.0533 11.5038C15.0533 11.5038 15.0539 11.5027 15.0545 11.5022C15.0545 11.5022 15.0556 11.5016 15.0561 11.5011L22.7705 3.76088C22.5018 3.63656 22.2056 3.5625 21.8906 3.5625Z" fill="#C3018D"/>
<path d="M0.224344 4.74414C0.0853125 5.0253 0 5.33739 0 5.6717V18.328C0 18.6623 0.0852187 18.9744 0.224297 19.2555L7.45631 12.0001L0.224344 4.74414Z" fill="#C3018D"/>
<path d="M23.7757 4.74414L16.5438 12.0002L23.7757 19.2557C23.9147 18.9745 24 18.6625 24 18.328V5.6718C24 5.33739 23.9147 5.0253 23.7757 4.74414Z" fill="#C3018D"/>
</g>

</symbol><symbol id="facebook" viewBox="0 0 24 24">
<path d="M20.4844 0H3.51562C1.57727 0 0 1.57727 0 3.51562V20.4844C0 22.4227 1.57727 24 3.51562 24H10.5938V15.5156H7.78125V11.2969H10.5938V8.4375C10.5938 6.11115 12.4861 4.21875 14.8125 4.21875H19.0781V8.4375H14.8125V11.2969H19.0781L18.375 15.5156H14.8125V24H20.4844C22.4227 24 24 22.4227 24 20.4844V3.51562C24 1.57727 22.4227 0 20.4844 0Z"/>
</symbol><symbol id="icon" viewBox="0 0 70 70">
<path d="M56.3559 6.67367V44.0466C56.3559 45.2751 55.3599 46.2711 54.1314 46.2711H3.70764C2.47908 46.2711 1.48306 45.2751 1.48306 44.0466V6.67367C1.48306 5.44511 2.47908 4.4491 3.70764 4.4491H54.1314C55.3599 4.4491 56.3559 5.44511 56.3559 6.67367Z" fill="#3493F8"/>
<path d="M49.6822 20.7627H12.6059C11.3774 20.7627 10.3814 19.7666 10.3814 18.5381V14.0889C10.3814 12.8604 11.3774 11.8644 12.6059 11.8644H49.6822C50.9108 11.8644 51.9068 12.8604 51.9068 14.0889V18.5381C51.9068 19.7666 50.9108 20.7627 49.6822 20.7627ZM5.93222 44.0466V6.67367C5.93222 5.44511 6.92823 4.4491 8.15679 4.4491H3.70764C2.47908 4.4491 1.48306 5.44511 1.48306 6.67367V44.0466C1.48306 45.2751 2.47908 46.2711 3.70764 46.2711H8.15679C6.92823 46.2711 5.93222 45.2751 5.93222 44.0466Z" fill="#1380E2"/>
<path d="M64.5956 22.149V46.4758C60.9912 52.9716 55.5368 58.2988 48.9441 61.7465H25.2948C24.0662 61.7465 23.0702 60.7505 23.0702 59.5219V22.149C23.0702 20.9205 24.0662 19.9244 25.2948 19.9244H62.371C63.5996 19.9244 64.5956 20.9205 64.5956 22.149Z" fill="#E9F3FE"/>
<path d="M26.0363 22.149V61.7465H11.9473C10.7187 61.7465 9.72273 60.7505 9.72273 59.5219V22.149C9.72273 20.9203 10.7187 19.9244 11.9473 19.9244H23.8117C25.0403 19.9244 26.0363 20.9205 26.0363 22.149Z" fill="#A7D0FC"/>
<path d="M26.0363 22.149V61.7465H16.0257C14.7971 61.7465 13.8011 60.7505 13.8011 59.5219V22.149C13.8011 20.9203 14.7971 19.9244 16.0257 19.9244H23.8117C25.0403 19.9244 26.0363 20.9205 26.0363 22.149Z" fill="#C8E2FD"/>
<path d="M60.1465 29.416V45.4162H32.71C31.4815 45.4162 30.4854 44.4203 30.4854 43.1916V29.416C30.4854 28.1873 31.4815 27.1914 32.71 27.1914H57.9219C59.1504 27.1914 60.1465 28.1874 60.1465 29.416Z" fill="#C8E2FD"/>
<path d="M64.5956 17.5515V23.0388H9.72273V17.5515C9.72273 16.3228 10.7187 15.3269 11.9473 15.3269H62.371C63.5996 15.3269 64.5956 16.3229 64.5956 17.5515Z" fill="#86BEFB"/>
<path d="M16.0257 15.3269C14.7971 15.3269 13.8011 16.3228 13.8011 17.5515V23.0388H9.72273V17.5515C9.72273 16.3228 10.7187 15.3269 11.9473 15.3269H16.0257Z" fill="#76B6FA"/>
<path d="M14.246 19.1828C14.246 19.7971 13.748 20.2951 13.1338 20.2951C12.5195 20.2951 12.0215 19.7971 12.0215 19.1828C12.0215 18.5686 12.5195 18.0706 13.1338 18.0706C13.748 18.0706 14.246 18.5686 14.246 19.1828ZM17.5458 18.1076C16.9316 18.1076 16.4335 18.6056 16.4335 19.2199C16.4335 19.8342 16.9316 20.3322 17.5458 20.3322C18.1601 20.3322 18.6581 19.8342 18.6581 19.2199C18.6581 18.6056 18.1601 18.1076 17.5458 18.1076ZM21.9579 18.1447C21.3436 18.1447 20.8456 18.6427 20.8456 19.257C20.8456 19.8713 21.3436 20.3693 21.9579 20.3693C22.5722 20.3693 23.0702 19.8713 23.0702 19.257C23.0702 18.6427 22.5722 18.1447 21.9579 18.1447Z" fill="#3493F8"/>
<path d="M56.3559 2.22458V7.71187H1.48306V2.22458C1.48306 0.996017 2.47908 0 3.70764 0H54.1314C55.3599 0 56.3559 0.996017 56.3559 2.22458Z" fill="#86BEFB"/>
<path d="M8.15679 0C6.92823 0 5.93222 0.996017 5.93222 2.22458V7.71187H1.48306V2.22458C1.48306 0.996017 2.47908 0 3.70764 0H8.15679Z" fill="#76B6FA"/>
<path d="M6.00638 3.85594C6.00638 4.47022 5.50837 4.96823 4.89409 4.96823C4.27981 4.96823 3.7818 4.47022 3.7818 3.85594C3.7818 3.24166 4.27981 2.74365 4.89409 2.74365C5.50837 2.74365 6.00638 3.24166 6.00638 3.85594ZM9.30616 2.78073C8.69188 2.78073 8.19388 3.27874 8.19388 3.89302C8.19388 4.5073 8.69188 5.00531 9.30616 5.00531C9.92044 5.00531 10.4185 4.5073 10.4185 3.89302C10.4185 3.27874 9.92044 2.78073 9.30616 2.78073ZM13.7182 2.8178C13.104 2.8178 12.606 3.31581 12.606 3.93009C12.606 4.54437 13.104 5.04238 13.7182 5.04238C14.3325 5.04238 14.8305 4.54437 14.8305 3.93009C14.8305 3.31581 14.3325 2.8178 13.7182 2.8178Z" fill="#3493F8"/>
<path d="M22.2458 28.5487C22.2458 29.163 21.7478 29.661 21.1335 29.661H12.9767C12.3624 29.661 11.8644 29.163 11.8644 28.5487C11.8644 27.9344 12.3624 27.4364 12.9767 27.4364H21.1335C21.7478 27.4364 22.2458 27.9344 22.2458 28.5487Z" fill="#76B6FA"/>
<path d="M21.1335 43.4288H12.9767C12.3624 43.4288 11.8644 42.9308 11.8644 42.3165C11.8644 41.7022 12.3624 41.2042 12.9767 41.2042H21.1335C21.7478 41.2042 22.2458 41.7022 22.2458 42.3165C22.2458 42.9308 21.7478 43.4288 21.1335 43.4288ZM22.2458 51.2148C22.2458 50.6005 21.7478 50.1025 21.1335 50.1025H12.9767C12.3624 50.1025 11.8644 50.6005 11.8644 51.2148C11.8644 51.8291 12.3624 52.3271 12.9767 52.3271H21.1335C21.7478 52.3271 22.2458 51.8291 22.2458 51.2148ZM19.2797 46.7657C19.2797 46.1514 18.7817 45.6534 18.1674 45.6534H12.9767C12.3624 45.6534 11.8644 46.1514 11.8644 46.7657C11.8644 47.3799 12.3624 47.878 12.9767 47.878H18.1674C18.7817 47.878 19.2797 47.3799 19.2797 46.7657ZM19.2797 55.664C19.2797 55.0497 18.7817 54.5517 18.1674 54.5517H12.9767C12.3624 54.5517 11.8644 55.0497 11.8644 55.664C11.8644 56.2783 12.3624 56.7763 12.9767 56.7763H18.1674C18.7817 56.7763 19.2797 56.2783 19.2797 55.664ZM19.2797 32.9979C19.2797 32.3836 18.7817 31.8856 18.1674 31.8856H12.9767C12.3624 31.8856 11.8644 32.3836 11.8644 32.9979C11.8644 33.6122 12.3624 34.1102 12.9767 34.1102H18.1674C18.7817 34.1102 19.2797 33.6122 19.2797 32.9979Z" fill="#86BEFB"/>
<path d="M49.3801 52.6483H33.7394C33.1251 52.6483 32.6271 52.1503 32.6271 51.536C32.6271 50.9217 33.1251 50.4237 33.7394 50.4237H49.3801C49.9944 50.4237 50.4924 50.9217 50.4924 51.536C50.4924 52.1503 49.9944 52.6483 49.3801 52.6483ZM38.5593 30.7733C38.5593 30.159 38.0613 29.661 37.447 29.661H33.7394C33.1251 29.661 32.6271 30.159 32.6271 30.7733C32.6271 31.3876 33.1251 31.8856 33.7394 31.8856H37.447C38.0613 31.8856 38.5593 31.3876 38.5593 30.7733ZM34.8517 34.4809C34.8517 33.8666 34.3537 33.3686 33.7394 33.3686C33.1251 33.3686 32.6271 33.8666 32.6271 34.4809C32.6271 35.0952 33.1251 35.5932 33.7394 35.5932C34.3537 35.5932 34.8517 35.0952 34.8517 34.4809ZM50.4924 55.6639C50.4924 55.0497 49.9944 54.5516 49.3801 54.5516H33.7394C33.1251 54.5516 32.6271 55.0497 32.6271 55.6639C32.6271 56.2782 33.1251 56.7762 33.7394 56.7762H49.3801C49.9944 56.7762 50.4924 56.2782 50.4924 55.6639ZM53.2341 34.2766L50.6265 32.1815C49.7906 31.5099 48.7507 31.1439 47.6786 31.1439C46.5776 31.1439 45.5113 31.53 44.6655 32.2348L38.3854 37.4682C37.5396 38.1731 36.4733 38.5592 35.3722 38.5592H30.4854V43.1913C30.4854 44.4199 31.4815 45.4159 32.71 45.4159H60.1465V34.7243L56.9471 35.2514C55.6272 35.4689 54.277 35.1145 53.2341 34.2766Z" fill="#A7D0FC"/>
<path d="M67.5914 54.9916C67.4222 56.2142 67.1033 57.3889 66.6543 58.4968L66.966 58.6768C67.9448 59.242 68.2803 60.4936 67.7151 61.4725C67.1499 62.4515 65.8983 62.7868 64.9194 62.2216L64.6048 62.0399C63.858 62.9961 62.9962 63.8579 62.04 64.6047L62.2217 64.9193C62.7869 65.8982 62.4514 67.1499 61.4726 67.715C60.4937 68.2802 59.242 67.9447 58.6769 66.9659L58.4969 66.654C57.3889 67.1032 56.2142 67.4219 54.9917 67.5911V67.9533C54.9917 69.0835 54.0755 69.9999 52.9451 69.9999C51.8147 69.9999 50.8985 69.0835 50.8985 67.9533V67.5911C49.676 67.4219 48.5013 67.1032 47.3933 66.654L47.2132 66.9659C46.648 67.9447 45.3965 68.2802 44.4175 67.715C43.4386 67.1498 43.1033 65.8982 43.6685 64.9193L43.8501 64.6047C42.894 63.8579 42.0322 62.9961 41.2853 62.0399L40.9708 62.2216C39.9918 62.7868 38.7401 62.4513 38.1751 61.4725C37.6099 60.4936 37.9454 59.2419 38.9242 58.6768L39.2359 58.4968C38.7868 57.3888 38.4681 56.2141 38.2988 54.9916H37.9365C36.8061 54.9916 35.8898 54.0754 35.8898 52.945C35.8898 51.8146 36.8061 50.8984 37.9365 50.8984H38.2985C38.4677 49.6757 38.7865 48.501 39.2356 47.3932L38.9239 47.2131C37.9451 46.6479 37.6096 45.3964 38.1748 44.4174C38.74 43.4385 39.9917 43.1032 40.9705 43.6683L41.285 43.85C42.0319 42.8939 42.8937 42.0321 43.8498 41.2852L43.6682 40.9707C43.103 39.9917 43.4384 38.74 44.4172 38.175C45.3962 37.6098 46.6479 37.9453 47.2129 38.9241L47.393 39.236C48.501 38.7867 49.6757 38.468 50.8982 38.2988V37.9365C50.8982 36.8063 51.8144 35.8899 52.9448 35.8899C54.0752 35.8899 54.9914 36.8063 54.9914 37.9365V38.2985C56.2139 38.4679 57.3886 38.7866 58.4966 39.2357L58.6766 38.9238C59.2418 37.945 60.4934 37.6095 61.4723 38.1747C62.4513 38.7399 62.7866 39.9914 62.2214 40.9704L62.0397 41.2849C62.9959 42.0318 63.8577 42.8936 64.6045 43.8497L64.9191 43.668C65.8981 43.1029 67.1497 43.4383 67.7148 44.4171C68.28 45.3961 67.9445 46.6478 66.9657 47.2128L66.654 47.3929C67.103 48.5009 67.4217 49.6756 67.5911 50.8981H67.9531C69.0835 50.8981 69.9997 51.8143 69.9997 52.9447C69.9997 54.0751 69.0835 54.9913 67.9531 54.9913H67.5914V54.9916Z" fill="#9BCF1B"/>
<path d="M63.09 52.9449C63.09 58.5479 58.5479 63.09 52.9449 63.09C47.3419 63.09 42.7998 58.5479 42.7998 52.9449C42.7998 47.3419 47.3419 42.7998 52.9449 42.7998C58.5479 42.7998 63.09 47.3419 63.09 52.9449Z" fill="#71892E"/>
<path d="M52.9449 41.6875C46.7376 41.6875 41.6875 46.7376 41.6875 52.9449C41.6875 59.1522 46.7376 64.2023 52.9449 64.2023C59.1522 64.2023 64.2023 59.1522 64.2023 52.9449C64.2023 46.7376 59.1522 41.6875 52.9449 41.6875ZM52.9449 61.9777C47.9642 61.9777 43.9121 57.9256 43.9121 52.9449C43.9121 47.9642 47.9642 43.9121 52.9449 43.9121C57.9256 43.9121 61.9777 47.9642 61.9777 52.9449C61.9777 57.9256 57.9256 61.9777 52.9449 61.9777Z" fill="#7FA32F"/>
<path d="M51.8299 49.3564L48.1144 53.0717L51.8299 56.7871C52.2642 57.2215 52.2642 57.9258 51.8299 58.36C51.3953 58.7944 50.6912 58.7944 50.2568 58.36L45.755 53.8582C45.5465 53.6497 45.4293 53.3667 45.4293 53.0717C45.4293 52.7768 45.5465 52.4938 45.755 52.2853L50.2568 47.7835C50.4741 47.5663 50.7588 47.4576 51.0434 47.4576C51.328 47.4576 51.6127 47.5662 51.83 47.7835C52.2642 48.2177 52.2642 48.9222 51.8299 49.3564ZM60.1349 52.2853L55.6331 47.7835C55.1986 47.3491 54.4945 47.3491 54.0601 47.7835C53.6257 48.2179 53.6257 48.9222 54.0601 49.3564L57.7756 53.0717L54.0601 56.7872C53.6257 57.2216 53.6257 57.9259 54.0601 58.3601C54.2773 58.5773 54.5621 58.6858 54.8467 58.6858C55.1313 58.6858 55.416 58.5773 55.6333 58.3601L60.1351 53.8583C60.3436 53.6498 60.4608 53.3669 60.4608 53.0717C60.4608 52.7766 60.3436 52.4938 60.1349 52.2853Z" fill="#F2FBDC"/>
</symbol><symbol id="icon2" viewBox="0 0 70 70">
<path d="M48.9732 70H21.1439C17.853 70 15.1758 67.3226 15.1758 64.0317V5.96829C15.1756 2.67735 17.853 0 21.1439 0H48.9732C52.2642 0 54.9413 2.67735 54.9413 5.96829V64.0319C54.9413 67.3226 52.264 70 48.9732 70Z" fill="#2A428C"/>
<path d="M33.215 66.2867C31.1306 64.2024 33.215 62.1604 33.215 62.1604L33.018 43.0682C30.3544 40.4045 33.215 37.9586 33.215 37.9586C33.215 37.9586 35.2163 21.5101 33.1915 18.855C31.1668 16.1998 33.9224 14.4076 33.9224 14.4076V9.9874C30.1698 9.9874 30.0659 6.7752 30.0659 6.7752C28.7715 5.48095 30.0659 4.27676 30.0659 4.27676V2.21403C28.9258 1.49151 29.2027 0.518385 29.4708 0H21.1439C17.853 0 15.1758 2.67735 15.1758 5.96812V64.0317C15.1758 67.3226 17.8531 70 21.1439 70H33.215C31.3433 68.1284 33.215 66.2867 33.215 66.2867Z" fill="#142766"/>
<path d="M30.662 4.27689H30.0661C29.4964 4.27689 29.0346 3.81512 29.0346 3.24544C29.0346 2.67577 29.4964 2.21399 30.0661 2.21399H30.662C31.2317 2.21399 31.6934 2.67577 31.6934 3.24544C31.6934 3.81512 31.2315 4.27689 30.662 4.27689Z" fill="#3C58A0"/>
<path d="M39.9085 4.27689H34.1823C33.6126 4.27689 33.1508 3.81512 33.1508 3.24544C33.1508 2.67577 33.6126 2.21399 34.1823 2.21399H39.9085C40.4782 2.21399 40.94 2.67577 40.94 3.24544C40.94 3.81512 40.4782 4.27689 39.9085 4.27689Z" fill="#3C58A0"/>
<path d="M48.9732 3.71313H44.7906C44.0108 3.71313 43.3789 4.34525 43.3789 5.12489C43.3789 6.03249 42.6363 6.77524 41.7285 6.77524H28.3886C27.4808 6.77524 26.7382 6.03266 26.7382 5.12489C26.7382 4.34525 26.1061 3.71313 25.3265 3.71313H21.1439C19.8985 3.71313 18.8889 4.7228 18.8889 5.96816V64.0318C18.8889 65.2771 19.8985 66.2868 21.1439 66.2868H48.9732C50.2186 66.2868 51.2282 65.2771 51.2282 64.0318C51.2282 58.059 51.2282 7.56226 51.2282 5.96816C51.2282 4.7228 50.2186 3.71313 48.9732 3.71313Z" fill="#E9EFFF"/>
<path d="M45.4123 18.8552H24.7049C24.0052 18.8552 23.438 19.4223 23.438 20.122V35.6835L29.1696 27.5871C30.1391 26.2178 32.1712 26.2178 33.1407 27.5871L36.8416 32.8151C37.0188 33.0654 37.3902 33.0654 37.5674 32.8151L38.3222 31.7488C39.2188 30.4822 41.0985 30.4822 41.9951 31.7488L46.1974 37.685C46.4904 37.4529 46.6791 37.0948 46.6791 36.692V20.122C46.6791 19.4223 46.112 18.8552 45.4123 18.8552Z" fill="#FFDD40"/>
<path d="M40.3826 25.6392C40.6411 24.5456 39.9641 23.4495 38.8705 23.191C37.7769 22.9325 36.6808 23.6094 36.4222 24.7031C36.1637 25.7967 36.8407 26.8928 37.9343 27.1513C39.0279 27.4098 40.1241 26.7328 40.3826 25.6392Z" fill="#FCF2C8"/>
<path d="M27.676 13.9563C28.6464 12.9859 28.6464 11.4126 27.676 10.4422C26.7056 9.47177 25.1323 9.47177 24.1619 10.4422C23.1915 11.4126 23.1915 12.9859 24.1619 13.9563C25.1323 14.9267 26.7056 14.9267 27.676 13.9563Z" fill="#816AE2"/>
<path d="M37.4825 12.7811C37.7982 11.4456 36.9715 10.1071 35.636 9.79138C34.3005 9.47569 32.9619 10.3024 32.6462 11.6379C32.3306 12.9734 33.1573 14.3119 34.4928 14.6276C35.8283 14.9433 37.1668 14.1166 37.4825 12.7811Z" fill="#FC90CE"/>
<path d="M45.155 14.4814C46.4232 13.9558 47.0252 12.5015 46.4995 11.2332C45.9738 9.965 44.5195 9.36305 43.2513 9.88873C41.9831 10.4144 41.3811 11.8687 41.9068 13.1369C42.4325 14.4052 43.8868 15.0071 45.155 14.4814Z" fill="#4FABF7"/>
<path d="M45.4123 43.0684H24.7049C24.0052 43.0684 23.438 43.6355 23.438 44.3352V59.8967L29.1696 51.8003C30.1391 50.4309 32.1712 50.4309 33.1407 51.8003L36.8416 57.0282C37.0188 57.2785 37.3902 57.2785 37.5674 57.0282L38.3222 55.9619C39.2188 54.6953 41.0985 54.6953 41.9951 55.9619L46.1974 61.8982C46.4904 61.6661 46.6791 61.3079 46.6791 60.9051V44.3353C46.6791 43.6355 46.112 43.0684 45.4123 43.0684Z" fill="#73C3F9"/>
<path d="M38.399 51.4035C39.523 51.4035 40.4341 50.4923 40.4341 49.3684C40.4341 48.2444 39.523 47.3333 38.399 47.3333C37.275 47.3333 36.3639 48.2444 36.3639 49.3684C36.3639 50.4923 37.275 51.4035 38.399 51.4035Z" fill="#FFDD40"/>
<path d="M30.8992 20.5381C30.8992 19.1505 32.3978 18.8939 33.1915 18.855H24.7047C24.005 18.855 23.4379 19.4221 23.4379 20.1218V35.6833L29.1694 27.5869C29.599 26.9802 30.2373 26.6435 30.899 26.5743C30.8992 23.8201 30.8992 21.2946 30.8992 20.5381Z" fill="#FFB332"/>
<path d="M23.4379 44.3352V59.8967L29.1694 51.8003C29.599 51.1936 30.2373 50.8568 30.899 50.7879C30.899 48.029 30.899 45.4977 30.899 44.7402C30.899 43.4487 32.1979 43.1368 33.0179 43.0684H24.7045C24.0051 43.0682 23.4379 43.6355 23.4379 44.3352Z" fill="#4FABF7"/>
<path d="M41.9951 31.56C41.0985 30.2934 39.2188 30.2934 38.3222 31.56L37.5674 32.6263C37.3902 32.8766 37.0188 32.8766 36.8416 32.6263L33.1407 27.3984C32.1712 26.0288 30.1391 26.0288 29.1696 27.3984L23.438 35.4948V36.6917C23.438 37.3914 24.0052 37.9585 24.7049 37.9585H45.4125C45.7487 37.9585 46.0535 37.8266 46.2803 37.6129L41.9951 31.56Z" fill="#2A428C"/>
<path d="M41.9951 55.7732C41.0985 54.5065 39.2188 54.5065 38.3222 55.7732L37.5674 56.8394C37.3902 57.0897 37.0188 57.0897 36.8416 56.8394L33.1407 51.6115C32.1712 50.242 30.1391 50.242 29.1696 51.6115L23.438 59.7079V60.9049C23.438 61.6046 24.0052 62.1717 24.7049 62.1717H45.4125C45.7487 62.1717 46.0535 62.0398 46.2803 61.826L41.9951 55.7732Z" fill="#4CE088"/>
<path d="M30.8992 35.319C30.8992 35.319 30.8992 30.5482 30.8992 26.386C30.2373 26.4551 29.5991 26.7917 29.1696 27.3986L23.438 35.4949V36.6921C23.438 37.3918 24.0052 37.9589 24.7049 37.9589H33.215C30.8992 37.4536 30.8992 35.319 30.8992 35.319Z" fill="#1C2E7A"/>
<path d="M33.215 62.1604C30.8992 61.6552 30.8992 59.5208 30.8992 59.5208C30.8992 59.5208 30.8992 54.7587 30.8992 50.5991C30.2373 50.6683 29.5991 51.0048 29.1696 51.6115L23.438 59.7079V60.9049C23.438 61.6046 24.0052 62.1717 24.7049 62.1717H33.2567C33.2426 62.1681 33.2297 62.1636 33.215 62.1604Z" fill="#30C16B"/>
</symbol><symbol id="icon3" viewBox="0 0 70 70">
<g clip-path="url(#clip0_769_846)">
<path d="M61.1524 35C61.1524 33.97 61.0922 32.9544 60.9759 31.9557C60.8263 30.6715 61.3351 29.3982 62.307 28.5456L66.308 25.0354C67.666 23.8441 67.9711 21.8491 67.0315 20.3062L62.7523 13.2808C61.8126 11.7379 59.8998 11.0938 58.2183 11.7538L53.2308 13.7114C52.0236 14.1852 50.6668 14.0192 49.5914 13.2946C48.436 12.5163 47.215 11.8278 45.9385 11.2391C44.7639 10.6974 43.9205 9.62582 43.6977 8.35169L42.7758 3.07808C42.4646 1.29843 40.9195 0 39.113 0H30.887C29.0805 0 27.5354 1.29843 27.2244 3.07794L26.3024 8.35155C26.0797 9.62569 25.2362 10.6974 24.0616 11.239C22.7851 11.8277 21.5641 12.5161 20.4087 13.2945C19.3332 14.0189 17.9764 14.1849 16.7694 13.7112L11.7817 11.7537C10.1 11.0938 8.1874 11.7379 7.24775 13.2806L2.96869 20.306C2.02904 21.8489 2.33416 23.8439 3.69216 25.0353L7.69314 28.5455C8.66504 29.3981 9.17385 30.6714 9.02424 31.9556C8.90785 32.9542 8.84773 33.97 8.84773 34.9999C8.84773 36.0297 8.90798 37.0455 9.02424 38.0442C9.17385 39.3283 8.66504 40.6016 7.69314 41.4543L3.69216 44.9644C2.33416 46.1558 2.02904 48.1508 2.96869 49.6937L7.24775 56.7191C8.1874 58.262 10.1002 58.9061 11.7817 58.246L16.7693 56.2885C17.9764 55.8147 19.3332 55.9808 20.4086 56.7052C21.564 57.4836 22.785 58.1721 24.0615 58.7607C25.2361 59.3025 26.0795 60.374 26.3023 61.6482L27.2242 66.9218C27.5354 68.7016 29.0805 69.451 30.887 69.451H39.113C40.9195 69.451 42.4646 68.7016 42.7756 66.9221L43.6976 61.6485C43.9203 60.3743 44.7638 59.3026 45.9384 58.761C47.2149 58.1723 48.4359 57.4839 49.5913 56.7055C50.6668 55.9811 52.0236 55.8151 53.2306 56.2888L58.2182 58.2463C59.8998 58.9064 61.8125 58.2621 62.7521 56.7194L67.0312 49.694C67.9708 48.1511 67.6657 46.1561 66.3077 44.9647L62.3067 41.4546C61.3348 40.6019 60.826 39.3286 60.9756 38.0445C61.0923 37.0457 61.1524 36.03 61.1524 35Z" fill="url(#paint0_linear_769_846)"/>
<path d="M35 56.3776C46.8065 56.3776 56.3776 46.8065 56.3776 35C56.3776 23.1935 46.8065 13.6224 35 13.6224C23.1935 13.6224 13.6224 23.1935 13.6224 35C13.6224 46.8065 23.1935 56.3776 35 56.3776Z" fill="url(#paint1_linear_769_846)"/>
<path d="M42.7756 66.9221C43.1424 64.8243 43.3267 62.6988 43.3267 60.5691V46.0261H26.6732V60.5691C26.6732 62.6988 26.8575 64.8243 27.2242 66.9221C27.5354 68.7016 29.0805 70 30.887 70H39.113C40.9195 70 42.4646 68.7016 42.7756 66.9221Z" fill="url(#paint2_linear_769_846)"/>
<path d="M26.6732 50.5315L42.8161 66.6745C43.1547 64.6571 43.3267 62.615 43.3267 60.5691V46.0261H26.6732V50.5315Z" fill="url(#paint3_linear_769_846)"/>
<path d="M52.6153 35C52.6153 44.7286 44.7288 52.6151 35.0001 52.6153C25.2715 52.6154 17.402 44.7607 17.3847 35.0321C17.3741 29.1094 20.2864 23.8657 24.7609 20.6645C25.5606 20.0924 26.6726 20.6607 26.6726 21.6438V33.2707C26.6726 34.6847 27.427 35.9914 28.6515 36.6985L33.0208 39.2212C34.2455 39.9284 35.7544 39.9284 36.9791 39.2212L41.3483 36.6985C42.5729 35.9915 43.3273 34.6848 43.3273 33.2707V21.6434C43.3273 20.6653 44.4338 20.0893 45.2297 20.6578C49.7015 23.8527 52.6153 29.0863 52.6153 35Z" fill="url(#paint4_linear_769_846)"/>
<path d="M21.9639 36.4838C21.9639 38.6974 23.1449 40.7429 25.0619 41.8497L31.9017 45.799C33.8189 46.9059 36.1811 46.9059 38.0983 45.799L44.9381 41.8497C46.8551 40.7429 48.0361 38.6974 48.0361 36.4838V23.1549C47.1925 22.2272 46.2524 21.3887 45.2297 20.658C44.4338 20.0893 43.3273 20.6654 43.3273 21.6436V33.2709C43.3273 34.6849 42.5729 35.9916 41.3483 36.6987L36.9791 39.2215C35.7544 39.9286 34.2455 39.9286 33.0208 39.2215L28.6516 36.6987C27.427 35.9917 26.6726 34.685 26.6726 33.2709V21.644C26.6726 20.6607 25.5606 20.0926 24.7609 20.6647C23.7418 21.3938 22.8048 22.23 21.9638 23.1548V36.4838H21.9639Z" fill="url(#paint5_linear_769_846)"/>
</g>

</symbol><symbol id="icon4" viewBox="0 0 70 70">
<path d="M6.3636 0.000732422H63.6349C67.1494 0.000732422 69.9985 2.84986 69.9985 6.36433V57.2731C69.9985 60.7876 67.1494 63.6367 63.6349 63.6367H6.3636C2.84913 63.6367 0 60.7876 0 57.2731V6.36433C0 2.84986 2.84913 0.000732422 6.3636 0.000732422Z" fill="#F0EAF9"/>
<path d="M3.18172 12.728H66.8168C68.574 12.728 69.9985 14.1525 69.9985 15.9098V15.9099C69.9985 17.6671 68.574 19.0916 66.8168 19.0916H3.18172C1.42449 19.0916 0 17.6671 0 15.9099V15.9098C0 14.1525 1.42449 12.728 3.18172 12.728Z" fill="#E1D5F3"/>
<path d="M6.3636 0.000732422H63.6355C67.15 0.000732422 69.9991 2.84986 69.9991 6.36433V15.9096H0V6.36433C0 2.84986 2.84913 0.000732422 6.3636 0.000732422Z" fill="#5628B4"/>
<path d="M68.4082 22.2729C67.5295 22.2729 66.8172 22.9851 66.8172 23.8637C66.8172 23.8637 66.8172 23.8637 66.8172 23.8639V57.2725C66.8172 59.0297 65.3927 60.4542 63.6355 60.4542H46.1358C45.2572 60.4542 44.5449 61.1665 44.5449 62.0452C44.5449 62.9238 45.2572 63.6361 46.1358 63.6361H63.6355C67.15 63.6361 69.9989 60.787 69.9991 57.2725V23.8639C69.9991 22.9851 69.2868 22.2729 68.4082 22.2729Z" fill="#D9C9EF"/>
<path d="M7.95495 9.54637C8.8336 9.54637 9.54589 8.83409 9.54589 7.95544C9.54589 7.07679 8.8336 6.3645 7.95495 6.3645C7.0763 6.3645 6.36401 7.07679 6.36401 7.95544C6.36401 8.83409 7.0763 9.54637 7.95495 9.54637Z" fill="#F7B236"/>
<path d="M14.3176 9.54637C15.1962 9.54637 15.9085 8.83409 15.9085 7.95544C15.9085 7.07679 15.1962 6.3645 14.3176 6.3645C13.4389 6.3645 12.7266 7.07679 12.7266 7.95544C12.7266 8.83409 13.4389 9.54637 14.3176 9.54637Z" fill="#B39DDD"/>
<path d="M20.6816 9.54637C21.5602 9.54637 22.2725 8.83409 22.2725 7.95544C22.2725 7.07679 21.5602 6.3645 20.6816 6.3645C19.8029 6.3645 19.0906 7.07679 19.0906 7.95544C19.0906 8.83409 19.8029 9.54637 20.6816 9.54637Z" fill="#D80E70"/>
<path d="M60.4538 44.5454H28.6359C26.8787 44.5454 25.4542 43.1209 25.4542 41.3636V25.4552C25.4542 23.6979 26.8787 22.2734 28.6359 22.2734H60.4538C62.211 22.2734 63.6355 23.6979 63.6355 25.4552V41.3636C63.6355 43.1209 62.211 44.5454 60.4538 44.5454Z" fill="#B39DDD"/>
<path d="M15.9085 35H9.54531C7.78808 35 6.36359 33.5755 6.36359 31.8183V25.4552C6.36359 23.6979 7.78808 22.2734 9.54531 22.2734H15.9085C17.6657 22.2734 19.0902 23.6979 19.0902 25.4552V31.8183C19.0902 33.5755 17.6657 35 15.9085 35Z" fill="#B39DDD"/>
<path d="M15.9085 57.272H9.54531C7.78808 57.272 6.36359 55.8475 6.36359 54.0903V47.7271C6.36359 45.9699 7.78808 44.5454 9.54531 44.5454H15.9085C17.6657 44.5454 19.0902 45.9699 19.0902 47.7271V54.0903C19.0902 55.8475 17.6657 57.272 15.9085 57.272Z" fill="#B39DDD"/>
<path d="M27.0452 47.7267H36.5899C37.4685 47.7267 38.1808 48.439 38.1808 49.3176C38.1808 50.1962 37.4685 50.9086 36.5899 50.9086H27.0452C26.1665 50.9086 25.4542 50.1962 25.4542 49.3176C25.4542 48.439 26.1665 47.7267 27.0452 47.7267Z" fill="#B39DDD"/>
<path d="M58.8624 47.7267H62.0441C62.9228 47.7267 63.6351 48.439 63.6351 49.3176C63.6351 50.1962 62.9228 50.9086 62.0441 50.9086H58.8624C57.9838 50.9086 57.2715 50.1962 57.2715 49.3176C57.2715 48.439 57.9838 47.7267 58.8624 47.7267Z" fill="#B39DDD"/>
<path d="M42.9545 47.7267H52.4992C53.3779 47.7267 54.0902 48.439 54.0902 49.3176C54.0902 50.1962 53.3779 50.9086 52.4992 50.9086H42.9545C42.0759 50.9086 41.3636 50.1962 41.3636 49.3176C41.3636 48.439 42.0759 47.7267 42.9545 47.7267Z" fill="#B39DDD"/>
<path d="M27.0452 54.0907H39.7727C40.6513 54.0907 41.3636 54.803 41.3636 55.6816C41.3636 56.5603 40.6513 57.2726 39.7727 57.2726H27.0452C26.1665 57.2726 25.4542 56.5603 25.4542 55.6816C25.4542 54.803 26.1665 54.0907 27.0452 54.0907Z" fill="#B39DDD"/>
<path d="M46.1358 54.0907H49.3175C50.1961 54.0907 50.9085 54.803 50.9085 55.6816C50.9085 56.5603 50.1961 57.2726 49.3175 57.2726H46.1358C45.2572 57.2726 44.5449 56.5603 44.5449 55.6816C44.5449 54.803 45.2572 54.0907 46.1358 54.0907Z" fill="#B39DDD"/>
<path d="M17.4992 41.3641H7.95452C7.07591 41.3641 6.36359 40.6518 6.36359 39.7732C6.36359 38.8946 7.07591 38.1823 7.95452 38.1823H17.4992C18.3779 38.1823 19.0902 38.8946 19.0902 39.7732C19.0902 40.6518 18.3779 41.3641 17.4992 41.3641Z" fill="#B39DDD"/>
<path d="M34.9995 47.7271H31.8181C23.0319 47.7271 15.9092 54.8497 15.9092 63.636C15.9092 63.6361 15.9092 63.6361 15.9092 63.6363V63.7205C15.9205 65.4585 14.3866 66.8178 12.6486 66.8178H11.1362C10.2576 66.8178 9.54529 67.5302 9.54529 68.4088C9.54529 69.2874 10.2576 69.9997 11.1362 69.9997H22.2725C31.0586 69.9996 38.1812 62.8768 38.1812 54.0907V47.7271H34.9995Z" fill="#F7B236"/>
<path d="M38.1812 54.0906V47.7271H34.9995C34.9995 56.5132 27.8769 63.636 19.0906 63.636H15.9093V63.7204C15.9207 65.4582 14.3866 66.8177 12.6487 66.8177H11.1362C10.2576 66.8177 9.54529 67.53 9.54529 68.4086C9.54529 69.2872 10.2576 69.9996 11.1362 69.9996H22.2725C31.0586 69.9994 38.1812 62.8768 38.1812 54.0906Z" fill="#F58B04"/>
<path d="M68.9327 16.9757C67.9577 16.0008 66.5155 15.6603 65.2075 16.0964C53.9934 20.0587 44.7544 28.2177 39.4354 38.8555L38.1813 41.3636V47.7272H44.5449L47.0529 46.4732C57.6907 41.1542 65.8497 31.9151 69.8121 20.7011C70.2482 19.3928 69.9077 17.9507 68.9327 16.9757Z" fill="#D80E70"/>
<path d="M34.9996 47.7271L38.1813 50.909L44.5449 47.7271L38.1813 41.3636L34.9996 47.7271Z" fill="#5628B4"/>
<path d="M36.7195 49.4469L38.1813 50.9087L44.5449 47.727L41.4922 44.6743C40.1742 43.3563 38.0375 43.3563 36.7195 44.6743C36.463 44.9308 36.2495 45.2269 36.0873 45.5514C35.4377 46.8508 35.6923 48.4199 36.7195 49.4469Z" fill="#420F9B"/>
</symbol><symbol id="instagram" viewBox="0 0 24 24">
<path d="M18.9765 4.44092C18.6552 4.44092 18.3938 4.70234 18.3938 5.02357C18.3938 5.34481 18.6552 5.60623 18.9765 5.60623C19.2977 5.60623 19.5591 5.34486 19.5591 5.02357C19.5591 4.70229 19.2977 4.44092 18.9765 4.44092Z"/>
<path d="M12 6.83459C9.15178 6.83459 6.83456 9.15181 6.83456 12C6.83456 14.8483 9.15178 17.1655 12 17.1655C14.8483 17.1655 17.1655 14.8483 17.1655 12.0001C17.1655 9.15186 14.8483 6.83459 12 6.83459Z"/>
<path d="M17.4208 0H6.57923C2.95144 0 0 2.95144 0 6.57928V17.4208C0 21.0486 2.95144 24 6.57923 24H17.4208C21.0486 24 24 21.0486 24 17.4208V6.57928C24 2.95144 21.0486 0 17.4208 0ZM12 18.5828C8.37023 18.5828 5.4173 15.6298 5.4173 12C5.4173 8.37023 8.37028 5.41734 12 5.41734C15.6297 5.41734 18.5828 8.37028 18.5828 12C18.5828 15.6297 15.6297 18.5828 12 18.5828ZM18.9765 7.02356C17.8737 7.02356 16.9765 6.12637 16.9765 5.02359C16.9765 3.92081 17.8737 3.02358 18.9765 3.02358C20.0792 3.02358 20.9764 3.92077 20.9764 5.02355C20.9764 6.12633 20.0792 7.02356 18.9765 7.02356Z"/>
</symbol><symbol id="location-pin" viewBox="0 0 24 24">
<g clip-path="url(#clip0_699_1543)">
<path d="M12 0C7.038 0 3 4.066 3 9.065C3 16.168 11.154 23.502 11.501 23.81C11.644 23.937 11.822 24 12 24C12.178 24 12.356 23.937 12.499 23.811C12.846 23.502 21 16.168 21 9.065C21 4.066 16.962 0 12 0ZM12 14C9.243 14 7 11.757 7 9C7 6.243 9.243 4 12 4C14.757 4 17 6.243 17 9C17 11.757 14.757 14 12 14Z" fill="#C3018D"/>
</g>

</symbol><symbol id="logo" viewBox="0 0 127 62">
<path d="M43.2904 36.1866C42.0958 36.1866 41.0506 35.9241 40.1546 35.399C39.2587 34.874 38.556 34.0776 38.0466 33.01C37.5547 31.9249 37.3088 30.5597 37.3088 28.9145C37.3088 27.2518 37.5459 25.8867 38.0202 24.8191C38.4946 23.7514 39.1797 22.9551 40.0756 22.43C40.9715 21.905 42.0431 21.6424 43.2904 21.6424C44.6254 21.6424 45.82 21.9487 46.874 22.5613C47.9456 23.1564 48.7888 23.9965 49.4037 25.0816C50.0361 26.1667 50.3523 27.4444 50.3523 28.9145C50.3523 30.4022 50.0361 31.6886 49.4037 32.7737C48.7888 33.8589 47.9456 34.699 46.874 35.294C45.82 35.8891 44.6254 36.1866 43.2904 36.1866ZM34.9109 41.0697V21.8525H38.8371V24.7403L38.7581 28.9408L39.0216 33.115V41.0697H34.9109ZM42.5789 32.8262C43.264 32.8262 43.8701 32.6687 44.3971 32.3537C44.9417 32.0386 45.372 31.5923 45.6882 31.0148C46.022 30.4197 46.1889 29.7196 46.1889 28.9145C46.1889 28.0919 46.022 27.3919 45.6882 26.8143C45.372 26.2367 44.9417 25.7904 44.3971 25.4754C43.8701 25.1603 43.264 25.0028 42.5789 25.0028C41.8938 25.0028 41.2789 25.1603 40.7344 25.4754C40.1898 25.7904 39.7594 26.2367 39.4432 26.8143C39.127 27.3919 38.9689 28.0919 38.9689 28.9145C38.9689 29.7196 39.127 30.4197 39.4432 31.0148C39.7594 31.5923 40.1898 32.0386 40.7344 32.3537C41.2789 32.6687 41.8938 32.8262 42.5789 32.8262Z" fill="white"/>
<path d="M60.1397 36.1866C58.5235 36.1866 57.1006 35.8716 55.8709 35.2415C54.6587 34.6114 53.7189 33.7538 53.0514 32.6687C52.3838 31.5661 52.05 30.3147 52.05 28.9145C52.05 27.4969 52.375 26.2455 53.025 25.1603C53.6926 24.0577 54.5973 23.2001 55.7391 22.5875C56.881 21.9575 58.1721 21.6424 59.6126 21.6424C61.0004 21.6424 62.2477 21.94 63.3544 22.535C64.4787 23.1126 65.3658 23.9527 66.0158 25.0553C66.6658 26.1405 66.9908 27.4444 66.9908 28.967C66.9908 29.1246 66.982 29.3083 66.9644 29.5184C66.9469 29.7109 66.9293 29.8946 66.9117 30.0697H55.3966V27.6806H64.751L63.17 28.3895C63.17 27.6544 63.0206 27.0156 62.722 26.473C62.4234 25.9304 62.0105 25.5104 61.4835 25.2128C60.9565 24.8978 60.3417 24.7403 59.639 24.7403C58.9363 24.7403 58.3127 24.8978 57.7681 25.2128C57.2411 25.5104 56.8283 25.9392 56.5296 26.4992C56.231 27.0418 56.0817 27.6894 56.0817 28.442V29.072C56.0817 29.8421 56.2486 30.5247 56.5823 31.1198C56.9337 31.6974 57.4168 32.1437 58.0316 32.4587C58.664 32.7562 59.4018 32.905 60.2451 32.905C61.0004 32.905 61.6592 32.7912 62.2213 32.5637C62.8011 32.3362 63.3281 31.9949 63.8024 31.5398L65.9895 33.9026C65.3395 34.6377 64.5226 35.2065 63.5389 35.6091C62.5551 35.9941 61.422 36.1866 60.1397 36.1866Z" fill="white"/>
<path d="M76.4733 36.1866C74.9625 36.1866 73.6186 35.8716 72.4416 35.2415C71.2822 34.6114 70.3599 33.7538 69.6748 32.6687C69.0073 31.5661 68.6735 30.3147 68.6735 28.9145C68.6735 27.4969 69.0073 26.2455 69.6748 25.1603C70.3599 24.0577 71.2822 23.2001 72.4416 22.5875C73.6186 21.9575 74.9625 21.6424 76.4733 21.6424C77.9665 21.6424 79.3015 21.9575 80.4785 22.5875C81.6555 23.2001 82.5778 24.049 83.2453 25.1341C83.9129 26.2192 84.2467 27.4794 84.2467 28.9145C84.2467 30.3147 83.9129 31.5661 83.2453 32.6687C82.5778 33.7538 81.6555 34.6114 80.4785 35.2415C79.3015 35.8716 77.9665 36.1866 76.4733 36.1866ZM76.4733 32.8262C77.1584 32.8262 77.7732 32.6687 78.3178 32.3537C78.8624 32.0386 79.2928 31.5923 79.609 31.0148C79.9252 30.4197 80.0833 29.7196 80.0833 28.9145C80.0833 28.0919 79.9252 27.3919 79.609 26.8143C79.2928 26.2367 78.8624 25.7904 78.3178 25.4754C77.7732 25.1603 77.1584 25.0028 76.4733 25.0028C75.7881 25.0028 75.1733 25.1603 74.6287 25.4754C74.0841 25.7904 73.645 26.2367 73.3112 26.8143C72.995 27.3919 72.8369 28.0919 72.8369 28.9145C72.8369 29.7196 72.995 30.4197 73.3112 31.0148C73.645 31.5923 74.0841 32.0386 74.6287 32.3537C75.1733 32.6687 75.7881 32.8262 76.4733 32.8262Z" fill="white"/>
<path d="M95.3738 36.1866C94.1792 36.1866 93.134 35.9241 92.2381 35.399C91.3422 34.874 90.6395 34.0776 90.13 33.01C89.6382 31.9249 89.3922 30.5597 89.3922 28.9145C89.3922 27.2518 89.6294 25.8867 90.1037 24.8191C90.578 23.7514 91.2631 22.9551 92.159 22.43C93.0549 21.905 94.1265 21.6424 95.3738 21.6424C96.7089 21.6424 97.9034 21.9487 98.9575 22.5613C100.029 23.1564 100.872 23.9965 101.487 25.0816C102.12 26.1667 102.436 27.4444 102.436 28.9145C102.436 30.4022 102.12 31.6886 101.487 32.7737C100.872 33.8589 100.029 34.699 98.9575 35.294C97.9034 35.8891 96.7089 36.1866 95.3738 36.1866ZM86.9943 41.0697V21.8525H90.9205V24.7403L90.8415 28.9408L91.105 33.115V41.0697H86.9943ZM94.6623 32.8262C95.3474 32.8262 95.9535 32.6687 96.4805 32.3537C97.0251 32.0386 97.4555 31.5923 97.7717 31.0148C98.1055 30.4197 98.2723 29.7196 98.2723 28.9145C98.2723 28.0919 98.1055 27.3919 97.7717 26.8143C97.4555 26.2367 97.0251 25.7904 96.4805 25.4754C95.9535 25.1603 95.3474 25.0028 94.6623 25.0028C93.9772 25.0028 93.3624 25.1603 92.8178 25.4754C92.2732 25.7904 91.8428 26.2367 91.5266 26.8143C91.2104 27.3919 91.0523 28.0919 91.0523 28.9145C91.0523 29.7196 91.2104 30.4197 91.5266 31.0148C91.8428 31.5923 92.2732 32.0386 92.8178 32.3537C93.3624 32.6687 93.9772 32.8262 94.6623 32.8262Z" fill="white"/>
<path d="M105.188 35.9766V16.4968H109.298V35.9766H105.188Z" fill="white"/>
<path d="M120.149 36.1866C118.533 36.1866 117.11 35.8716 115.88 35.2415C114.668 34.6114 113.728 33.7538 113.061 32.6687C112.393 31.5661 112.059 30.3147 112.059 28.9145C112.059 27.4969 112.384 26.2455 113.034 25.1603C113.702 24.0577 114.606 23.2001 115.748 22.5875C116.89 21.9575 118.181 21.6424 119.622 21.6424C121.01 21.6424 122.257 21.94 123.364 22.535C124.488 23.1126 125.375 23.9527 126.025 25.0553C126.675 26.1405 127 27.4444 127 28.967C127 29.1246 126.991 29.3083 126.974 29.5184C126.956 29.7109 126.938 29.8946 126.921 30.0697H115.406V27.6806H124.76L123.179 28.3895C123.179 27.6544 123.03 27.0156 122.731 26.473C122.433 25.9304 122.02 25.5104 121.493 25.2128C120.966 24.8978 120.351 24.7403 119.648 24.7403C118.945 24.7403 118.322 24.8978 117.777 25.2128C117.25 25.5104 116.837 25.9392 116.539 26.4992C116.24 27.0418 116.091 27.6894 116.091 28.442V29.072C116.091 29.8421 116.258 30.5247 116.592 31.1198C116.943 31.6974 117.426 32.1437 118.041 32.4587C118.673 32.7562 119.411 32.905 120.254 32.905C121.01 32.905 121.668 32.7912 122.231 32.5637C122.81 32.3362 123.337 31.9949 123.812 31.5398L125.999 33.9026C125.349 34.6377 124.532 35.2065 123.548 35.6091C122.564 35.9941 121.431 36.1866 120.149 36.1866Z" fill="white"/>
<path d="M10.5577 0.313232H0.233459V10.6002H10.5577V0.313232Z" fill="#C3018D"/>
<path d="M0.233459 20.6172V12.3076L30.8483 12.3184V20.6172H22.4761L22.4436 43.1469L12.141 52.148V20.6063L0.233459 20.6172Z" fill="white"/>
<path d="M0.233459 22.3999H10.5252L10.536 61.1381L0.233459 52.1478V22.3999Z" fill="white"/>
</symbol><symbol id="next" viewBox="0 0 40 40">
<rect width="40" height="40" rx="20" fill="#C3018D"/>
<path d="M17.112 14.1418C16.9388 14.138 16.7688 14.1882 16.6255 14.2855C16.4822 14.3828 16.3728 14.5224 16.3124 14.6848C16.2521 14.8471 16.2439 15.0242 16.2889 15.1915C16.3338 15.3588 16.4298 15.5078 16.5635 15.618L21.6628 19.9865L16.5635 24.3534C16.471 24.4214 16.3936 24.5076 16.3361 24.6069C16.2785 24.7061 16.2421 24.8162 16.229 24.9302C16.216 25.0442 16.2266 25.1596 16.2603 25.2693C16.2939 25.379 16.3498 25.4806 16.4246 25.5677C16.4993 25.6548 16.5912 25.7254 16.6945 25.7753C16.7978 25.8252 16.9103 25.8532 17.0249 25.8577C17.1396 25.8621 17.2539 25.8429 17.3607 25.8011C17.4676 25.7592 17.5646 25.6958 17.6458 25.6148L23.4841 20.6196C23.5757 20.5414 23.6494 20.4443 23.6998 20.3348C23.7503 20.2254 23.7765 20.1062 23.7765 19.9857C23.7765 19.8652 23.7503 19.746 23.6998 19.6366C23.6494 19.5272 23.5757 19.4299 23.4841 19.3517L17.6458 14.3517C17.4984 14.2207 17.3092 14.1463 17.112 14.1416V14.1418Z" fill="white"/>
</symbol><symbol id="phone" viewBox="0 0 24 24">
<g clip-path="url(#clip0_699_1532)">
<path d="M22.0742 15.7533C20.6049 15.7533 19.1621 15.5234 17.7949 15.0716C17.125 14.8431 16.3014 15.0528 15.8926 15.4727L13.194 17.5098C10.0644 15.8393 8.13669 13.9121 6.48894 10.8061L8.46612 8.17781C8.97981 7.66481 9.16406 6.91544 8.94331 6.21231C8.48956 4.83794 8.25906 3.39587 8.25906 1.92587C8.25913 0.863937 7.39519 0 6.33331 0H1.92581C0.863937 0 0 0.863937 0 1.92581C0 14.0977 9.90237 24 22.0742 24C23.1361 24 24.0001 23.1361 24.0001 22.0742V17.679C24 16.6172 23.1361 15.7533 22.0742 15.7533Z" fill="#C3018D"/>
</g>

</symbol><symbol id="prev" viewBox="0 0 40 40">
<rect width="40" height="40" rx="20" fill="#C3018D"/>
<path d="M22.8881 14.1418C23.0612 14.138 23.2313 14.1882 23.3746 14.2855C23.5179 14.3828 23.6273 14.5224 23.6876 14.6848C23.748 14.8471 23.7562 15.0242 23.7112 15.1915C23.6662 15.3588 23.5702 15.5078 23.4366 15.618L18.3373 19.9865L23.4366 24.3534C23.529 24.4214 23.6065 24.5076 23.664 24.6069C23.7215 24.7061 23.758 24.8162 23.771 24.9302C23.7841 25.0442 23.7734 25.1596 23.7398 25.2693C23.7061 25.379 23.6502 25.4806 23.5755 25.5677C23.5008 25.6548 23.4089 25.7254 23.3056 25.7753C23.2023 25.8252 23.0898 25.8532 22.9751 25.8577C22.8605 25.8621 22.7462 25.8429 22.6393 25.8011C22.5325 25.7592 22.4354 25.6958 22.3542 25.6148L16.516 20.6196C16.4243 20.5414 16.3507 20.4443 16.3002 20.3348C16.2497 20.2254 16.2236 20.1062 16.2236 19.9857C16.2236 19.8652 16.2497 19.746 16.3002 19.6366C16.3507 19.5272 16.4243 19.4299 16.516 19.3517L22.3542 14.3517C22.5017 14.2207 22.6909 14.1463 22.8881 14.1416V14.1418Z" fill="white"/>
</symbol><symbol id="telegram" viewBox="0 0 24 24">
<g clip-path="url(#clip0_699_1574)">
<path d="M9.417 15.1809L9.02 20.7649C9.588 20.7649 9.83399 20.5209 10.129 20.2279L12.792 17.6829L18.31 21.7239C19.322 22.2879 20.035 21.9909 20.308 20.7929L23.93 3.82092L23.931 3.81992C24.252 2.32392 23.39 1.73892 22.404 2.10592L1.11399 10.2569C-0.339005 10.8209 -0.317005 11.6309 0.866995 11.9979L6.30999 13.6909L18.953 5.77992C19.548 5.38592 20.089 5.60392 19.644 5.99792L9.417 15.1809Z" fill="#C3018D"/>
</g>

</symbol><symbol id="tell" viewBox="0 0 24 24">
<g clip-path="url(#clip0_699_1532)">
<path d="M22.0742 15.7533C20.6049 15.7533 19.1621 15.5234 17.7949 15.0716C17.125 14.8431 16.3014 15.0528 15.8926 15.4727L13.194 17.5098C10.0644 15.8393 8.13669 13.9121 6.48894 10.8061L8.46612 8.17781C8.97981 7.66481 9.16406 6.91544 8.94331 6.21231C8.48956 4.83794 8.25906 3.39587 8.25906 1.92587C8.25913 0.863937 7.39519 0 6.33331 0H1.92581C0.863937 0 0 0.863937 0 1.92581C0 14.0977 9.90237 24 22.0742 24C23.1361 24 24.0001 23.1361 24.0001 22.0742V17.679C24 16.6172 23.1361 15.7533 22.0742 15.7533Z" fill="#C3018D"/>
</g>

</symbol><symbol id="tiktok" viewBox="0 0 24 24">
<path d="M12.2486 0.0202511C13.5757 0 14.8952 0.0120006 16.2131 0C16.293 1.53083 16.8512 3.09017 17.9874 4.17247C19.1213 5.28178 20.7252 5.78956 22.2857 5.96132V9.98828C20.8233 9.94103 19.354 9.64102 18.0269 9.01998C17.4489 8.76197 16.9105 8.4297 16.3835 8.08993C16.3766 11.0121 16.3956 13.9305 16.3645 16.8406C16.2854 18.2387 15.8177 19.63 14.9933 20.7821C13.667 22.7 11.3649 23.9503 9.00054 23.9893C7.55026 24.071 6.10151 23.681 4.8657 22.9625C2.81767 21.7714 1.37652 19.591 1.16663 17.2509C1.14229 16.7506 1.13392 16.2511 1.15446 15.7628C1.33698 13.86 2.2914 12.0396 3.77286 10.8013C5.45204 9.359 7.80427 8.67196 10.0067 9.07849C10.0272 10.5598 9.96713 12.0396 9.96713 13.521C8.96099 13.2 7.78526 13.29 6.90612 13.8922C6.26426 14.3025 5.77678 14.931 5.52277 15.6421C5.31287 16.1491 5.37295 16.7124 5.38512 17.2509C5.6262 18.892 7.22629 20.2713 8.93437 20.1221C10.0668 20.1101 11.152 19.462 11.7421 18.5132C11.933 18.181 12.1467 17.8412 12.1581 17.4504C12.2578 15.6616 12.2182 13.8802 12.2304 12.0914C12.2387 8.05993 12.2174 4.03897 12.2486 0.0202511Z"/>
</symbol><symbol id="tw" viewBox="0 0 24 24">
<path d="M7.54752 22.5482C16.6042 22.5482 21.5578 15.0448 21.5578 8.5379C21.5578 8.32478 21.5578 8.11262 21.5434 7.90142C22.507 7.20437 23.3389 6.3413 24 5.35261C23.1013 5.75082 22.148 6.01197 21.1718 6.12733C22.1998 5.51195 22.9691 4.54407 23.3366 3.4038C22.3701 3.97736 21.3126 4.38158 20.2099 4.59901C19.4675 3.80958 18.4856 3.28685 17.4162 3.11169C16.3468 2.93653 15.2494 3.11872 14.294 3.63006C13.3385 4.1414 12.5782 4.95338 12.1307 5.94036C11.6833 6.92734 11.5735 8.03428 11.8186 9.0899C9.86088 8.99176 7.94572 8.48302 6.19741 7.5967C4.4491 6.71039 2.90672 5.46632 1.6704 3.94525C1.04073 5.02924 0.847872 6.31248 1.1311 7.53368C1.41433 8.75488 2.15234 9.82222 3.19488 10.5184C2.41127 10.4952 1.64475 10.2838 0.96 9.90206C0.96 9.92222 0.96 9.94334 0.96 9.96446C0.960311 11.1013 1.35385 12.2031 2.07387 13.0828C2.79389 13.9626 3.79606 14.5662 4.9104 14.7914C4.18547 14.9891 3.42488 15.018 2.68704 14.8758C3.00169 15.8542 3.61427 16.7098 4.43911 17.323C5.26395 17.9361 6.25979 18.2761 7.28736 18.2954C5.54375 19.6657 3.38982 20.4096 1.17216 20.4074C0.780387 20.4066 0.388996 20.3829 0 20.3363C2.25181 21.7814 4.87192 22.5479 7.54752 22.5443"/>
</symbol><symbol id="viber" viewBox="0 0 24 24">
<path d="M14.3987 0H9.60072C4.98265 0 1.20422 3.77843 1.20422 8.3965V11.995C1.20422 15.2337 3.09344 18.2024 6.00222 19.5818V23.6002C6.00222 23.96 6.45204 24.1399 6.69194 23.8701L10.1705 20.3915H14.3987C19.0168 20.3915 22.7952 16.6131 22.7952 11.995V8.3965C22.7952 3.77843 19.0168 0 14.3987 0ZM17.5474 15.7434L16.3179 16.9429C15.0285 18.2024 11.6999 16.763 8.76107 13.7643C5.8223 10.7655 4.53284 7.40691 5.76232 6.14744L6.96182 4.94794C7.41164 4.49813 8.16132 4.52811 8.67111 4.97793L10.4104 6.77718C11.0401 7.40691 10.7702 8.48646 9.96057 8.72636C9.39081 8.90629 9.00097 9.53603 9.1809 10.1058C9.48077 11.4252 11.1601 13.1045 12.4195 13.4344C12.9893 13.5544 13.619 13.2545 13.829 12.6847C14.0988 11.8751 15.1784 11.6352 15.7781 12.2649L17.5174 14.0641C17.9972 14.484 17.9972 15.2337 17.5474 15.7434ZM13.0793 5.69763C12.9593 5.69763 12.8394 5.69763 12.7194 5.72761C12.5095 5.7576 12.2996 5.57768 12.2696 5.36776C12.2396 5.15785 12.4195 4.94794 12.6295 4.91795C12.7794 4.88796 12.9293 4.88796 13.0793 4.88796C15.2684 4.88796 17.0676 6.68721 17.0676 8.8763C17.0676 9.02624 17.0676 9.17618 17.0376 9.32611C17.0076 9.53603 16.7977 9.71595 16.5878 9.68596C16.3779 9.65598 16.198 9.44606 16.228 9.23615C16.228 9.1162 16.2579 8.99625 16.2579 8.8763C16.2879 7.13703 14.8485 5.69763 13.0793 5.69763ZM15.4783 8.90629C15.4783 9.1162 15.2983 9.29613 15.0884 9.29613C14.8785 9.29613 14.6986 9.1162 14.6986 8.90629C14.6986 8.03665 13.9789 7.31695 13.1093 7.31695C12.8993 7.31695 12.7194 7.13703 12.7194 6.92711C12.7194 6.7172 12.8993 6.53728 13.1093 6.53728C14.3987 6.50729 15.4783 7.58684 15.4783 8.90629ZM18.537 10.1958C18.477 10.4057 18.2671 10.5556 18.0272 10.4956C17.8173 10.4357 17.6973 10.2257 17.7573 10.0158C17.8473 9.65598 17.8773 9.29613 17.8773 8.90629C17.8773 6.26739 15.7182 4.10829 13.0793 4.10829C12.9593 4.10829 12.8394 4.10829 12.7194 4.10829C12.5095 4.10829 12.2996 3.95835 12.2996 3.74844C12.2996 3.53853 12.4495 3.32861 12.6594 3.32861C12.8094 3.32861 12.9593 3.29863 13.0793 3.29863C16.168 3.29863 18.6869 5.81758 18.6869 8.90629C18.6869 9.32611 18.627 9.77593 18.537 10.1958Z" fill="#C3018D"/>
</symbol><symbol id="whatsapp" viewBox="0 0 24 24">
<path d="M12.003 0H11.997C5.3805 0 0 5.382 0 12C0 14.625 0.846 17.058 2.2845 19.0335L0.789 23.4915L5.4015 22.017C7.299 23.274 9.5625 24 12.003 24C18.6195 24 24 18.6165 24 12C24 5.3835 18.6195 0 12.003 0ZM18.9855 16.9455C18.696 17.763 17.547 18.441 16.6305 18.639C16.0035 18.7725 15.1845 18.879 12.4275 17.736C8.901 16.275 6.63 12.6915 6.453 12.459C6.2835 12.2265 5.028 10.5615 5.028 8.8395C5.028 7.1175 5.9025 6.279 6.255 5.919C6.5445 5.6235 7.023 5.4885 7.482 5.4885C7.6305 5.4885 7.764 5.496 7.884 5.502C8.2365 5.517 8.4135 5.538 8.646 6.0945C8.9355 6.792 9.6405 8.514 9.7245 8.691C9.81 8.868 9.8955 9.108 9.7755 9.3405C9.663 9.5805 9.564 9.687 9.387 9.891C9.21 10.095 9.042 10.251 8.865 10.47C8.703 10.6605 8.52 10.8645 8.724 11.217C8.928 11.562 9.633 12.7125 10.671 13.6365C12.0105 14.829 13.0965 15.21 13.485 15.372C13.7745 15.492 14.1195 15.4635 14.331 15.2385C14.5995 14.949 14.931 14.469 15.2685 13.9965C15.5085 13.6575 15.8115 13.6155 16.1295 13.7355C16.4535 13.848 18.168 14.6955 18.5205 14.871C18.873 15.048 19.1055 15.132 19.191 15.2805C19.275 15.429 19.275 16.1265 18.9855 16.9455Z" fill="#C3018D"/>
</symbol></svg>