<svg width="24" height="24" viewBox="0 0 24 24" fill="none" xmlns="http://www.w3.org/2000/svg">
<path d="M7.54752 22.5482C16.6042 22.5482 21.5578 15.0448 21.5578 8.5379C21.5578 8.32478 21.5578 8.11262 21.5434 7.90142C22.507 7.20437 23.3389 6.3413 24 5.35261C23.1013 5.75082 22.148 6.01197 21.1718 6.12733C22.1998 5.51195 22.9691 4.54407 23.3366 3.4038C22.3701 3.97736 21.3126 4.38158 20.2099 4.59901C19.4675 3.80958 18.4856 3.28685 17.4162 3.11169C16.3468 2.93653 15.2494 3.11872 14.294 3.63006C13.3385 4.1414 12.5782 4.95338 12.1307 5.94036C11.6833 6.92734 11.5735 8.03428 11.8186 9.0899C9.86088 8.99176 7.94572 8.48302 6.19741 7.5967C4.4491 6.71039 2.90672 5.46632 1.6704 3.94525C1.04073 5.02924 0.847872 6.31248 1.1311 7.53368C1.41433 8.75488 2.15234 9.82222 3.19488 10.5184C2.41127 10.4952 1.64475 10.2838 0.96 9.90206C0.96 9.92222 0.96 9.94334 0.96 9.96446C0.960311 11.1013 1.35385 12.2031 2.07387 13.0828C2.79389 13.9626 3.79606 14.5662 4.9104 14.7914C4.18547 14.9891 3.42488 15.018 2.68704 14.8758C3.00169 15.8542 3.61427 16.7098 4.43911 17.323C5.26395 17.9361 6.25979 18.2761 7.28736 18.2954C5.54375 19.6657 3.38982 20.4096 1.17216 20.4074C0.780387 20.4066 0.388996 20.3829 0 20.3363C2.25181 21.7814 4.87192 22.5479 7.54752 22.5443" fill="white"/>
</svg>
